<?xml version="1.0" encoding="UTF-8"?>
<svg version="1.1" xmlns="http://www.w3.org/2000/svg" width="500" height="500">
<path d="M0 0 C0.86286621 0.4007373 0.86286621 0.4007373 1.74316406 0.80957031 C14.04581224 6.57623796 25.69846607 13.46564404 37 21 C37 21.66 37 22.32 37 23 C37.721875 23.25007813 38.44375 23.50015625 39.1875 23.7578125 C49.27547239 28.21333364 58.03562035 38.44938948 66 46 C66.75410156 46.7115625 67.50820313 47.423125 68.28515625 48.15625 C73.67234829 53.38279019 78.35305831 59.11438677 83 65 C83.41572266 65.52287598 83.83144531 66.04575195 84.25976562 66.58447266 C92.61736858 77.1202521 99.77306733 88.07034072 106 100 C106.85078125 101.62228516 106.85078125 101.62228516 107.71875 103.27734375 C135.09627651 156.65151275 139.02160502 218.86764376 121.36328125 275.96289062 C116.47083567 291.11963785 109.68304674 305.07605218 102 319 C101.63777344 319.6609668 101.27554687 320.32193359 100.90234375 321.00292969 C96.82333904 328.40484984 96.82333904 328.40484984 95 331 C94.34 331 93.68 331 93 331 C92.34 332.98 91.68 334.96 91 337 C90.34 337 89.68 337 89 337 C88.731875 337.7425 88.46375 338.485 88.1875 339.25 C87.04723249 341.89061949 85.90619694 343.85552844 84 346 C83.34 346 82.68 346 82 346 C81.75378906 346.73863281 81.50757813 347.47726562 81.25390625 348.23828125 C79.87250729 351.2808017 78.36173196 352.91285767 75.9375 355.1875 C73.07862194 357.80417081 73.07862194 357.80417081 71 361 C70.34 361 69.68 361 69 361 C69 361.66 69 362.32 69 363 C68.34 363 67.68 363 67 363 C67 363.66 67 364.32 67 365 C66.34 365 65.68 365 65 365 C65 365.66 65 366.32 65 367 C64.34 367 63.68 367 63 367 C63 367.66 63 368.32 63 369 C62.34 369 61.68 369 61 369 C61 369.66 61 370.32 61 371 C59.42578125 372.5859375 59.42578125 372.5859375 57.3125 374.375 C56.58417969 374.99246094 55.85585938 375.60992187 55.10546875 376.24609375 C54.41066406 376.82488281 53.71585937 377.40367187 53 378 C52.05125 378.804375 51.1025 379.60875 50.125 380.4375 C48 382 48 382 46 382 C46 382.66 46 383.32 46 384 C44.5390625 385.2890625 44.5390625 385.2890625 42.625 386.625 C41.99851562 387.07101562 41.37203125 387.51703125 40.7265625 387.9765625 C39 389 39 389 37 389 C37 389.66 37 390.32 37 391 C35.02 391.66 33.04 392.32 31 393 C31 393.66 31 394.32 31 395 C30.01773438 395.52787109 30.01773438 395.52787109 29.015625 396.06640625 C24.12551768 398.71176092 19.30786564 401.41518689 14.5625 404.3125 C-31.7365666 431.51169056 -93.1499211 439.61943681 -145.21044922 426.44042969 C-149.53064461 425.26573127 -153.80525862 423.96089708 -158.07177734 422.60546875 C-159.84938079 422.04729497 -161.63724469 421.52208137 -163.42578125 421 C-181.33406976 415.75214989 -199.21858566 408.04475258 -214.40625 397.05859375 C-216.13650808 395.80923168 -216.13650808 395.80923168 -219 395 C-219 394.34 -219 393.68 -219 393 C-220.98 392.34 -222.96 391.68 -225 391 C-225 390.34 -225 389.68 -225 389 C-225.7425 388.731875 -226.485 388.46375 -227.25 388.1875 C-229.89061949 387.04723249 -231.85552844 385.90619694 -234 384 C-234 383.34 -234 382.68 -234 382 C-234.73863281 381.75378906 -235.47726563 381.50757813 -236.23828125 381.25390625 C-239.2808017 379.87250729 -240.91285767 378.36173196 -243.1875 375.9375 C-245.80417081 373.07862194 -245.80417081 373.07862194 -249 371 C-249 370.34 -249 369.68 -249 369 C-249.66 369 -250.32 369 -251 369 C-251 368.34 -251 367.68 -251 367 C-251.66 367 -252.32 367 -253 367 C-253 366.34 -253 365.68 -253 365 C-253.66 365 -254.32 365 -255 365 C-255 364.34 -255 363.68 -255 363 C-255.66 363 -256.32 363 -257 363 C-257 362.34 -257 361.68 -257 361 C-257.66 361 -258.32 361 -259 361 C-260.5859375 359.42578125 -260.5859375 359.42578125 -262.375 357.3125 C-262.99246094 356.58417969 -263.60992187 355.85585938 -264.24609375 355.10546875 C-264.82488281 354.41066406 -265.40367187 353.71585937 -266 353 C-266.804375 352.05125 -267.60875 351.1025 -268.4375 350.125 C-270 348 -270 348 -270 346 C-270.66 346 -271.32 346 -272 346 C-273.2890625 344.5390625 -273.2890625 344.5390625 -274.625 342.625 C-275.07101562 341.99851562 -275.51703125 341.37203125 -275.9765625 340.7265625 C-277 339 -277 339 -277 337 C-277.66 337 -278.32 337 -279 337 C-279.66 335.02 -280.32 333.04 -281 331 C-281.66 331 -282.32 331 -283 331 C-283.54269531 330.04738281 -284.08539063 329.09476562 -284.64453125 328.11328125 C-285.36715839 326.84633756 -286.08981627 325.57941141 -286.8125 324.3125 C-287.16892578 323.68666016 -287.52535156 323.06082031 -287.89257812 322.41601562 C-288.24384766 321.80048828 -288.59511719 321.18496094 -288.95703125 320.55078125 C-289.3020166 319.94443848 -289.64700195 319.3380957 -290.00244141 318.71337891 C-290.88531031 317.19698782 -291.81994469 315.71099604 -292.76171875 314.23046875 C-294 312 -294 312 -294 309 C-294.66 309 -295.32 309 -296 309 C-296.4125 307.845 -296.825 306.69 -297.25 305.5 C-298.29806681 302.69215589 -299.42634025 300.17672228 -300.8125 297.5 C-325.84200219 248.20234929 -325.1761582 185.26361532 -308.61328125 133.68359375 C-305.51171307 124.45589899 -302.01857612 115.35546579 -297 107 C-296.30164541 105.3365723 -295.6037184 103.67295907 -294.91064453 102.00732422 C-293.03645468 97.87606713 -290.7076885 93.98536187 -288.4375 90.0625 C-287.94314453 89.18787109 -287.44878906 88.31324219 -286.93945312 87.41210938 C-286.46314453 86.58646484 -285.98683594 85.76082031 -285.49609375 84.91015625 C-285.06482178 84.15871338 -284.6335498 83.40727051 -284.18920898 82.63305664 C-283.79677002 82.09414795 -283.40433105 81.55523926 -283 81 C-282.34 81 -281.68 81 -281 81 C-280.855625 80.38125 -280.71125 79.7625 -280.5625 79.125 C-280 77 -280 77 -279 75 C-278.34 75 -277.68 75 -277 75 C-276.731875 74.2575 -276.46375 73.515 -276.1875 72.75 C-275.04723249 70.10938051 -273.90619694 68.14447156 -272 66 C-271.34 66 -270.68 66 -270 66 C-269.75378906 65.26136719 -269.50757813 64.52273437 -269.25390625 63.76171875 C-267.87250729 60.7191983 -266.36173196 59.08714233 -263.9375 56.8125 C-261.07862194 54.19582919 -261.07862194 54.19582919 -259 51 C-258.34 51 -257.68 51 -257 51 C-257 50.34 -257 49.68 -257 49 C-256.34 49 -255.68 49 -255 49 C-255 48.34 -255 47.68 -255 47 C-254.34 47 -253.68 47 -253 47 C-253 46.34 -253 45.68 -253 45 C-252.34 45 -251.68 45 -251 45 C-251 44.34 -251 43.68 -251 43 C-250.34 43 -249.68 43 -249 43 C-249 42.34 -249 41.68 -249 41 C-244.45903267 36.16288263 -238.81046561 32.1921106 -233.625 28.0625 C-233.00608887 27.56564697 -232.38717773 27.06879395 -231.74951172 26.55688477 C-227.23454979 23 -227.23454979 23 -225 23 C-225 22.34 -225 21.68 -225 21 C-222 19 -222 19 -219 19 C-219 18.34 -219 17.68 -219 17 C-218.04738281 16.45730469 -217.09476562 15.91460937 -216.11328125 15.35546875 C-214.84633756 14.63284161 -213.57941141 13.91018373 -212.3125 13.1875 C-211.68666016 12.83107422 -211.06082031 12.47464844 -210.41601562 12.10742188 C-209.49272461 11.58051758 -209.49272461 11.58051758 -208.55078125 11.04296875 C-207.94443848 10.6979834 -207.3380957 10.35299805 -206.71337891 9.99755859 C-205.19698782 9.11468969 -203.71099604 8.18005531 -202.23046875 7.23828125 C-200 6 -200 6 -197 6 C-197 5.34 -197 4.68 -197 4 C-133.66322097 -23.77889875 -64.2285329 -30.06820515 0 0 Z " fill="#CB9901" transform="translate(344,44)"/>
<path d="M0 0 C7.92 0 15.84 0 24 0 C24 9.24 24 18.48 24 28 C27.96 28.66 31.92 29.32 36 30 C38.8346781 30.95609015 41.3780574 31.88368972 44.0625 33.125 C44.73732422 33.43139404 45.41214844 33.73778809 46.10742188 34.0534668 C59.91600031 40.55210439 70.91262789 50.86591842 76.1875 65.4375 C78.46829674 72.40130146 78.29130266 78.7174334 78 86 C70.74 86 63.48 86 56 86 C55.5875 84.185 55.175 82.37 54.75 80.5 C52.12352437 70.15217238 47.95183761 62.40932678 38.5625 56.75 C24.22540285 49.70721543 6.07868493 48.20704262 -9.375 52.625 C-17.3414481 55.59268608 -25.20459128 60.21381633 -29.57421875 67.6953125 C-32.2192934 73.82608827 -32.01796964 80.99854702 -30.37890625 87.44140625 C-26.46874492 96.3218171 -17.66759641 101.55021038 -9 105 C-0.04825634 108.22228309 9.01722722 110.86180497 18.3125 112.875 C39.38234552 117.5352071 62.47637132 125.82285645 75.9375 143.625 C82.81323176 154.87619743 83.57500806 168.21510739 81.50390625 181.08203125 C80.82970946 183.50075984 80.02659135 185.7099116 79 188 C78.50693359 189.11181641 78.50693359 189.11181641 78.00390625 190.24609375 C71.03254576 204.16469238 59.23184849 212.37235711 44.84985352 217.2800293 C37.64532705 219.60498913 31.79084536 220.29174133 24 221 C24 230.24 24 239.48 24 249 C16.08 249 8.16 249 0 249 C0 239.43 0 229.86 0 220 C-2.97 219.67 -5.94 219.34 -9 219 C-26.61721556 214.54507193 -41.3057841 205.74903033 -51 189.9375 C-56.28241398 180.19410006 -58 171.03972509 -58 160 C-50.41 160 -42.82 160 -35 160 C-34.608125 161.77375 -34.21625 163.5475 -33.8125 165.375 C-31.09767623 176.09539712 -26.89186671 184.88956159 -17.1640625 190.69140625 C-6.52108081 196.25417376 2.29777487 197.36281166 14.1875 197.375 C15.42564453 197.39949219 16.66378906 197.42398438 17.93945312 197.44921875 C29.26829015 197.48482536 39.73803139 195.76195999 48.51171875 188.171875 C50 187 50 187 52 187 C56.27604602 178.68959752 58.90545078 170.13908893 56.4140625 160.8046875 C52.75657179 152.24817254 44.7304935 146.67878251 36.38671875 143.2109375 C26.31030708 139.60806828 16.00058418 136.73815219 5.63330078 134.10595703 C-13.1950589 129.3188244 -31.04407216 123.13354874 -45 109 C-45.58523437 108.43667969 -46.17046875 107.87335938 -46.7734375 107.29296875 C-55.00667981 98.70448502 -56.64159365 88.68228751 -56.45751953 77.23266602 C-56.22383168 71.11667125 -55.51715312 65.6336284 -53 60 C-52.73316406 59.32324219 -52.46632812 58.64648438 -52.19140625 57.94921875 C-49.65342655 52.14006522 -45.61307051 47.31352048 -41 43 C-40.34 43 -39.68 43 -39 43 C-39 42.34 -39 41.68 -39 41 C-28.03638419 32.56073817 -13.71126822 28 0 28 C0 18.76 0 9.52 0 0 Z " fill="#050301" transform="translate(229,124)"/>
<path d="M0 0 C1.010625 0.00064453 2.02125 0.00128906 3.0625 0.00195312 C7.93717265 0.03074056 12.5855459 0.16585877 17.375 1.1875 C17.375 1.5175 17.375 1.8475 17.375 2.1875 C15.81652344 2.11789063 15.81652344 2.11789063 14.2265625 2.046875 C1.86253334 1.65785427 -7.95124097 3.84805256 -17.625 12.1875 C-18.32248583 13.50497324 -18.99459957 14.83664193 -19.625 16.1875 C-20.285 16.5175 -20.945 16.8475 -21.625 17.1875 C-23.48188016 24.24364463 -23.93445377 33.56859246 -20.625 40.1875 C-17.22041511 44.86082868 -17.22041511 44.86082868 -12.625 48.1875 C-12.625 48.8475 -12.625 49.5075 -12.625 50.1875 C-11.4184375 50.57421875 -11.4184375 50.57421875 -10.1875 50.96875 C-5.14719143 52.69306609 -0.21256579 54.66699138 4.7421875 56.62109375 C10.80696669 59.00003912 16.56936279 61.19438616 23.0625 62.0625 C29.19591673 63.03173129 34.61735974 64.92084277 40.375 67.1875 C42.22750415 67.85877257 44.08167932 68.52545161 45.9375 69.1875 C59.23387018 74.0260072 59.23387018 74.0260072 65.375 77.1875 C65.375 77.8475 65.375 78.5075 65.375 79.1875 C66.303125 79.47625 67.23125 79.765 68.1875 80.0625 C71.375 81.1875 71.375 81.1875 74.375 83.1875 C74.375 83.8475 74.375 84.5075 74.375 85.1875 C75.035 85.1875 75.695 85.1875 76.375 85.1875 C76.375 85.8475 76.375 86.5075 76.375 87.1875 C77.035 87.1875 77.695 87.1875 78.375 87.1875 C82.375 91.65808824 82.375 91.65808824 82.375 94.1875 C83.035 94.1875 83.695 94.1875 84.375 94.1875 C89.22990027 101.95534044 90.73811886 109.05228763 90.625 118.125 C90.61750732 118.91841797 90.61001465 119.71183594 90.60229492 120.52929688 C90.41993057 130.43198698 88.13808856 137.47941061 83.375 146.1875 C82.715 146.1875 82.055 146.1875 81.375 146.1875 C81.148125 146.93 80.92125 147.6725 80.6875 148.4375 C79.10624115 151.75061379 77.30660239 153.02369823 74.375 155.1875 C73.7665625 155.82558594 73.158125 156.46367187 72.53125 157.12109375 C62.32667377 166.9004793 46.12865285 171.1875 32.375 171.1875 C32.375 180.4275 32.375 189.6675 32.375 199.1875 C27.425 199.5175 22.475 199.8475 17.375 200.1875 C17.375 200.8475 17.375 201.5075 17.375 202.1875 C6.815 201.8575 -3.745 201.5275 -14.625 201.1875 C-13.625 197.1875 -13.625 197.1875 -11.625 194.1875 C-11.34956155 191.76704562 -11.34956155 191.76704562 -11.4296875 189.08203125 C-11.43935547 187.60766602 -11.43935547 187.60766602 -11.44921875 186.10351562 C-11.46597656 185.07935547 -11.48273438 184.05519531 -11.5 183 C-11.50902344 181.96423828 -11.51804688 180.92847656 -11.52734375 179.86132812 C-11.5509214 177.30315315 -11.5838297 174.74544252 -11.625 172.1875 C-12.45644531 172.05472656 -13.28789062 171.92195312 -14.14453125 171.78515625 C-15.23121094 171.60855469 -16.31789062 171.43195313 -17.4375 171.25 C-18.51644531 171.07597656 -19.59539062 170.90195312 -20.70703125 170.72265625 C-23.625 170.1875 -23.625 170.1875 -26.625 169.1875 C-26.625 168.5275 -26.625 167.8675 -26.625 167.1875 C-27.32109375 167.07148438 -28.0171875 166.95546875 -28.734375 166.8359375 C-31.94655796 166.11536673 -34.82584717 165.05168773 -37.875 163.8125 C-39.46054688 163.18214844 -39.46054688 163.18214844 -41.078125 162.5390625 C-43.625 161.1875 -43.625 161.1875 -44.625 158.1875 C-45.285 158.1875 -45.945 158.1875 -46.625 158.1875 C-46.13 157.1975 -46.13 157.1975 -45.625 156.1875 C-44.93277344 156.63480469 -44.24054688 157.08210937 -43.52734375 157.54296875 C-32.69366346 164.23729821 -22.10261362 167.41469697 -9.625 170.1875 C-9.625 179.7575 -9.625 189.3275 -9.625 199.1875 C-1.705 199.1875 6.215 199.1875 14.375 199.1875 C14.375 189.9475 14.375 180.7075 14.375 171.1875 C17.18 170.671875 19.985 170.15625 22.875 169.625 C38.99694643 166.37440523 53.78262289 160.26761216 63.8046875 146.65625 C69.45996571 137.76536485 71.55393328 129.74929197 71.5625 119.375 C71.57474609 118.60607422 71.58699219 117.83714844 71.59960938 117.04492188 C71.63064879 104.78435125 67.38476457 95.51313866 59.04296875 86.640625 C50.27592928 78.57956968 39.43109466 74.14681611 28.375 70.1875 C27.22773438 69.76855469 26.08046875 69.34960938 24.8984375 68.91796875 C17.27041115 66.25407928 9.57698525 64.17274644 1.75 62.1875 C-13.56674252 58.27990207 -30.24668676 54.01518345 -39.625 40.1875 C-42.63454235 34.1684153 -42.3321806 27.75311353 -41.625 21.1875 C-39.19480111 14.11166508 -32.77978421 8.51911841 -26.390625 4.93359375 C-17.605106 0.82863573 -9.59302074 -0.11713843 0 0 Z " fill="#A37A03" transform="translate(238.625,173.8125)"/>
<path d="M0 0 C5.61 0 11.22 0 17 0 C17.33 8.91 17.66 17.82 18 27 C21.63 27.66 25.26 28.32 29 29 C32.55859375 30.25390625 32.55859375 30.25390625 35.4375 31.5625 C38.61693318 32.98922301 41.58366104 34.28119582 45 35 C45 35.66 45 36.32 45 37 C46.32 37.33 47.64 37.66 49 38 C49 38.66 49 39.32 49 40 C49.804375 40.268125 50.60875 40.53625 51.4375 40.8125 C52.283125 41.204375 53.12875 41.59625 54 42 C54.33 42.99 54.66 43.98 55 45 C55.5775 45.268125 56.155 45.53625 56.75 45.8125 C63.81485088 49.5411713 68.49320195 59.27965159 70.82421875 66.58203125 C72.09316252 72.29677803 72.50727749 78.1604103 72 84 C71 85 71 85 67.18359375 85.09765625 C65.60153318 85.09098089 64.01948841 85.07901875 62.4375 85.0625 C61.63119141 85.05798828 60.82488281 85.05347656 59.99414062 85.04882812 C57.99606244 85.03700518 55.99802217 85.01906914 54 85 C53.97421875 84.12859375 53.9484375 83.2571875 53.921875 82.359375 C53.18708917 66.92887252 48.54793999 54.67573311 37.6484375 43.61328125 C31.46195998 38.3235407 24.48359654 35.07975008 17 32 C16.14277344 31.63777344 15.28554688 31.27554688 14.40234375 30.90234375 C12.06205593 30.02330881 9.82149961 29.4377293 7.375 28.9375 C4.8205113 28.41003732 2.48366124 27.82788708 0 27 C0 18.09 0 9.18 0 0 Z " fill="#AF8303" transform="translate(253,125)"/>
<path d="M0 0 C6.27 0 12.54 0 19 0 C19.20625 1.753125 19.4125 3.50625 19.625 5.3125 C21.01942837 13.72887122 24.52875414 21.29914055 31 27 C34.53966215 29.24801525 38.25006449 31.12766193 42 33 C42.66128906 33.33515625 43.32257813 33.6703125 44.00390625 34.015625 C50.32024232 36.79863269 57.19605082 36.72287286 64 37 C64 37.33 64 37.66 64 38 C60.10815548 38.10059445 56.21683746 38.17225841 52.32397461 38.21972656 C50.36610224 38.24919327 48.40858901 38.30007758 46.45117188 38.3515625 C32.74903691 38.49102443 20.90715707 35.48355937 10.8125 25.9296875 C3.29233511 17.99480764 0.60956456 10.81977088 0 0 Z " fill="#9D7603" transform="translate(194,284)"/>
<path d="M0 0 C3.41457449 0.41641152 5.9276081 0.96229588 9 2.5625 C12.61053211 4.24052263 15.68231431 4.03672879 19.625 3.875 C27.35539514 3.67720737 33.02413411 5.93878225 40 9 C41.99297221 9.68739088 43.99121316 10.36029705 46 11 C46 11.99 46 12.98 46 14 C46.77085937 14.18175781 47.54171875 14.36351562 48.3359375 14.55078125 C49.33882813 14.80214844 50.34171875 15.05351562 51.375 15.3125 C52.37273437 15.55613281 53.37046875 15.79976562 54.3984375 16.05078125 C57 17 57 17 59 20 C53.2298683 18.4736325 47.50375526 16.86235948 41.8125 15.0625 C36.90874905 13.52680575 31.99501786 12.24909252 27 11.0625 C17.53416325 8.78488593 8.67309942 5.43949451 0 1 C0 0.67 0 0.34 0 0 Z " fill="#A77E03" transform="translate(210,224)"/>
<path d="M0 0 C0.64324219 0.37511719 1.28648437 0.75023437 1.94921875 1.13671875 C13.42245314 7.63439928 24.05467483 11.01261727 37 14 C37 23.57 37 33.14 37 43 C47.56 43 58.12 43 69 43 C69 43.33 69 43.66 69 44 C67.35 44 65.7 44 64 44 C64 44.66 64 45.32 64 46 C53.44 45.67 42.88 45.34 32 45 C33 41 33 41 35 38 C35.27543845 35.57954562 35.27543845 35.57954562 35.1953125 32.89453125 C35.18564453 31.42016602 35.18564453 31.42016602 35.17578125 29.91601562 C35.15902344 28.89185547 35.14226562 27.86769531 35.125 26.8125 C35.11597656 25.77673828 35.10695312 24.74097656 35.09765625 23.67382812 C35.0740786 21.11565315 35.0411703 18.55794252 35 16 C34.16855469 15.86722656 33.33710938 15.73445313 32.48046875 15.59765625 C30.85044922 15.33275391 30.85044922 15.33275391 29.1875 15.0625 C28.10855469 14.88847656 27.02960938 14.71445312 25.91796875 14.53515625 C23 14 23 14 20 13 C20 12.34 20 11.68 20 11 C19.30390625 10.88398438 18.6078125 10.76796875 17.890625 10.6484375 C14.67844204 9.92786673 11.79915283 8.86418773 8.75 7.625 C7.69296875 7.20476562 6.6359375 6.78453125 5.546875 6.3515625 C3 5 3 5 2 2 C1.34 2 0.68 2 0 2 C0 1.34 0 0.68 0 0 Z " fill="#A88620" transform="translate(192,330)"/>
<path d="M0 0 C0 0.33 0 0.66 0 1 C-29.19075048 9.47115415 -59.54641069 14.68337149 -90 11 C-90 10.67 -90 10.34 -90 10 C-88.89487061 9.97494385 -87.78974121 9.9498877 -86.65112305 9.92407227 C-82.55285956 9.82993491 -78.45476306 9.72972959 -74.35668945 9.62768555 C-72.58264063 9.58436066 -70.80855077 9.54268381 -69.03442383 9.50268555 C-66.48506295 9.4449238 -63.9359082 9.38124638 -61.38671875 9.31640625 C-60.59287277 9.29969376 -59.79902679 9.28298126 -58.98112488 9.26576233 C-55.75316923 9.17882282 -53.08248901 9.02749634 -50 8 C-46.45111434 7.72833561 -42.90249891 7.55459248 -39.34765625 7.37890625 C-36.22987988 7.02601908 -34.68313956 6.45171972 -32 5 C-29.640625 4.5859375 -29.640625 4.5859375 -27.25 4.375 C-26.45078125 4.30023438 -25.6515625 4.22546875 -24.828125 4.1484375 C-24.22484375 4.09945313 -23.6215625 4.05046875 -23 4 C-23 3.34 -23 2.68 -23 2 C-22.40832031 2.02320313 -21.81664062 2.04640625 -21.20703125 2.0703125 C-16.24379038 2.23515195 -16.24379038 2.23515195 -11.5 1 C-7.72895202 -0.50841919 -4.01286586 -0.15736729 0 0 Z " fill="#C4AE5A" transform="translate(321,464)"/>
<path d="M0 0 C0.33 0 0.66 0 1 0 C6.34999034 21.9533032 10.1681346 43.1220663 10.1875 65.8125 C10.18830566 66.70042236 10.18911133 67.58834473 10.18994141 68.50317383 C10.14252764 74.06796925 9.69781211 79.4789106 9 85 C8.67 85 8.34 85 8 85 C7.97494385 84.02764404 7.9498877 83.05528809 7.92407227 82.0534668 C7.82884677 78.39483755 7.72892284 74.73634828 7.62768555 71.07788086 C7.58476649 69.50402128 7.543068 67.93012787 7.50268555 66.35620117 C8.0654283 51.7515987 8.0654283 51.7515987 5 38 C4.84084709 35.93985399 4.72295071 33.87646146 4.625 31.8125 C4.29111586 19.05845082 4.29111586 19.05845082 0 8 C-0.14115161 5.32941149 -0.04247107 2.67567762 0 0 Z " fill="#E6CA61" transform="translate(466,185)"/>
<path d="M0 0 C-0.99 0.66 -1.98 1.32 -3 2 C-2.34 2.66 -1.68 3.32 -1 4 C-2.010625 4.0825 -3.02125 4.165 -4.0625 4.25 C-8.74204142 4.91443793 -13.15681439 6.86433284 -16.3046875 10.51171875 C-19.46317456 13.28449195 -23.78563394 13.78101315 -27.7734375 14.83984375 C-31.19962863 16.0717793 -33.26257601 17.64080385 -36 20 C-38.8125 21.25 -38.8125 21.25 -41 22 C-41 22.66 -41 23.32 -41 24 C-42.98 24 -44.96 24 -47 24 C-46.67 23.34 -46.34 22.68 -46 22 C-45.01 22 -44.02 22 -43 22 C-43 21.34 -43 20.68 -43 20 C-42.04738281 19.45730469 -41.09476562 18.91460937 -40.11328125 18.35546875 C-38.84633756 17.63284161 -37.57941141 16.91018373 -36.3125 16.1875 C-35.68666016 15.83107422 -35.06082031 15.47464844 -34.41601562 15.10742188 C-33.80048828 14.75615234 -33.18496094 14.40488281 -32.55078125 14.04296875 C-31.94443848 13.6979834 -31.3380957 13.35299805 -30.71337891 12.99755859 C-29.19698782 12.11468969 -27.71099604 11.18005531 -26.23046875 10.23828125 C-24 9 -24 9 -21 9 C-21 8.34 -21 7.68 -21 7 C-17.88036821 5.63321521 -14.75353763 4.28376009 -11.625 2.9375 C-10.73554688 2.54755859 -9.84609375 2.15761719 -8.9296875 1.75585938 C-8.07890625 1.39169922 -7.228125 1.02753906 -6.3515625 0.65234375 C-5.56604004 0.31195068 -4.78051758 -0.02844238 -3.97119141 -0.37915039 C-2 -1 -2 -1 0 0 Z " fill="#D8B53F" transform="translate(168,41)"/>
<path d="M0 0 C6.00405977 0.55440238 11.58326009 1.4664563 17.375 3.125 C18.138125 3.34091797 18.90125 3.55683594 19.6875 3.77929688 C32.13789627 7.3988339 44.64770585 11.66722923 56 18 C55.67 18.66 55.34 19.32 55 20 C49.84171544 19.21844173 44.991107 17.58117321 40.875 14.3125 C38.44009941 12.60806958 36.92724236 12.92860384 34 13 C32.31422289 12.38325228 30.64551962 11.71727778 29 11 C28.360625 10.855625 27.72125 10.71125 27.0625 10.5625 C24.16665638 9.77272447 21.65192333 8.38623265 19 7 C19 6.34 19 5.68 19 5 C18.29875 4.96261719 17.5975 4.92523438 16.875 4.88671875 C10.67748398 4.45727131 5.69990204 3.47354239 0 1 C0 0.67 0 0.34 0 0 Z " fill="#EACE67" transform="translate(294,29)"/>
<path d="M0 0 C3.83471663 1.10780703 6.40670852 1.93520098 9 5 C10.051875 5.99 10.051875 5.99 11.125 7 C13 9 13 9 14 12 C15.65848177 13.01351664 17.32665961 14.01120795 19 15 C19.845625 15.86625 20.69125 16.7325 21.5625 17.625 C24.4626403 20.45077773 26.07855294 21 30 21 C30 20.34 30 19.68 30 19 C30.66 19.33 31.32 19.66 32 20 C31.773125 20.7425 31.54625 21.485 31.3125 22.25 C30.70523302 25.05914993 30.70523302 25.05914993 32.4375 27.3125 C32.953125 27.869375 33.46875 28.42625 34 29 C33.67 29.66 33.34 30.32 33 31 C32.34 31 31.68 31 31 31 C31 30.34 31 29.68 31 29 C30.26136719 28.75378906 29.52273437 28.50757813 28.76171875 28.25390625 C25.7191983 26.87250729 24.08714233 25.36173196 21.8125 22.9375 C19.19582919 20.07862194 19.19582919 20.07862194 16 18 C16 17.34 16 16.68 16 16 C15.34 16 14.68 16 14 16 C14 15.34 14 14.68 14 14 C13.34 14 12.68 14 12 14 C12 13.34 12 12.68 12 12 C11.34 12 10.68 12 10 12 C10 11.34 10 10.68 10 10 C9.34 10 8.68 10 8 10 C8 9.34 8 8.68 8 8 C7.34 8 6.68 8 6 8 C4.4921875 6.25 4.4921875 6.25 2.875 4 C2.33617188 3.2575 1.79734375 2.515 1.2421875 1.75 C0.62730469 0.88375 0.62730469 0.88375 0 0 Z " fill="#AA8E2F" transform="translate(79,397)"/>
<path d="M0 0 C3.20713522 1.60356761 4.16498285 4.89169415 5.6875 8 C6.0383667 8.71188477 6.3892334 9.42376953 6.75073242 10.15722656 C12.37462302 21.7314338 17.43709626 33.33193296 20 46 C19.34 46 18.68 46 18 46 C17.896875 45.360625 17.79375 44.72125 17.6875 44.0625 C17.460625 43.381875 17.23375 42.70125 17 42 C15.515 41.505 15.515 41.505 14 41 C13.34 37.7 12.68 34.4 12 31 C11.34 31 10.68 31 10 31 C10.04125 30.278125 10.0825 29.55625 10.125 28.8125 C9.98796765 25.72927208 9.23466843 23.8123003 8 21 C7.690625 19.948125 7.38125 18.89625 7.0625 17.8125 C6.20455969 14.71580257 6.20455969 14.71580257 3 13 C0.79513897 8.88970351 -0.43892119 4.68182607 0 0 Z " fill="#E6C754" transform="translate(446,139)"/>
<path d="M0 0 C6.09034054 3.10126551 10.60873722 7.07436262 15.5 11.8125 C16.22058594 12.49892578 16.94117188 13.18535156 17.68359375 13.89257812 C19.80112656 15.91629619 21.90180658 17.9562597 24 20 C24.66644531 20.63728027 25.33289063 21.27456055 26.01953125 21.93115234 C26.64214844 22.53523926 27.26476562 23.13932617 27.90625 23.76171875 C28.45603516 24.29112061 29.00582031 24.82052246 29.57226562 25.3659668 C31.11486871 27.13146653 32.04339924 28.86820478 33 31 C26.25 29.25 26.25 29.25 24 27 C23.875 24.375 23.875 24.375 24 22 C23.38125 21.87625 22.7625 21.7525 22.125 21.625 C20 21 20 21 18 19 C18 18.01 18 17.02 18 16 C17.37351562 15.82984375 16.74703125 15.6596875 16.1015625 15.484375 C15.28429687 15.24203125 14.46703125 14.9996875 13.625 14.75 C12.81289063 14.51796875 12.00078125 14.2859375 11.1640625 14.046875 C8.51164177 12.7637545 8.13195909 11.64476423 7 9 C6.34 8.67 5.68 8.34 5 8 C5 7.01 5 6.02 5 5 C3.35 4.67 1.7 4.34 0 4 C0 2.68 0 1.36 0 0 Z " fill="#EAC64B" transform="translate(387,71)"/>
<path d="M0 0 C1.07636719 0.00322266 2.15273437 0.00644531 3.26171875 0.00976562 C4.38964844 0.01814453 5.51757812 0.02652344 6.6796875 0.03515625 C7.81535156 0.03966797 8.95101562 0.04417969 10.12109375 0.04882812 C12.93234388 0.0606401 15.7434898 0.07711118 18.5546875 0.09765625 C18.5546875 0.42765625 18.5546875 0.75765625 18.5546875 1.09765625 C10.9646875 1.09765625 3.3746875 1.09765625 -4.4453125 1.09765625 C-2.45542294 17.25087739 0.46567081 30.26585268 12.5546875 42.09765625 C11.8946875 42.75765625 11.2346875 43.41765625 10.5546875 44.09765625 C10.5546875 43.43765625 10.5546875 42.77765625 10.5546875 42.09765625 C9.7709375 41.82953125 8.9871875 41.56140625 8.1796875 41.28515625 C5.5546875 40.09765625 5.5546875 40.09765625 3.5546875 37.09765625 C4.0496875 36.60265625 4.0496875 36.60265625 4.5546875 36.09765625 C3.5646875 35.43765625 2.5746875 34.77765625 1.5546875 34.09765625 C0.60546875 31.93359375 0.60546875 31.93359375 -0.1328125 29.47265625 C-0.50986328 28.24675781 -0.50986328 28.24675781 -0.89453125 26.99609375 C-1.07628906 26.36960937 -1.25804687 25.743125 -1.4453125 25.09765625 C-2.1053125 25.09765625 -2.7653125 25.09765625 -3.4453125 25.09765625 C-3.7753125 21.13765625 -4.1053125 17.17765625 -4.4453125 13.09765625 C-5.1053125 13.09765625 -5.7653125 13.09765625 -6.4453125 13.09765625 C-6.7753125 9.13765625 -7.1053125 5.17765625 -7.4453125 1.09765625 C-4.83580014 -0.20709993 -2.91829965 -0.01535947 0 0 Z " fill="#9E7C19" transform="translate(175.4453125,282.90234375)"/>
<path d="M0 0 C8.27315396 6.16516011 13.69327498 15.41761226 19.4375 23.875 C19.86248779 24.49286377 20.28747559 25.11072754 20.7253418 25.74731445 C23.15777196 29.38588396 24.80757557 32.73854875 26 37 C25.01 37 24.02 37 23 37 C21.17578125 34.515625 21.17578125 34.515625 19.3125 31.25 C18.68988281 30.18265625 18.06726563 29.1153125 17.42578125 28.015625 C16 25 16 25 16 21 C15.01 21 14.02 21 13 21 C11 19.1875 11 19.1875 9 17 C8.443125 16.525625 7.88625 16.05125 7.3125 15.5625 C5.57473955 13.49373756 5.35654122 11.63840503 5 9 C4.34 9 3.68 9 3 9 C2.01 6.03 1.02 3.06 0 0 Z " fill="#E7CA5C" transform="translate(420,102)"/>
<path d="M0 0 C3 2 3 2 4 5 C15.47324082 7.03199333 26.7545231 7.41993276 38.375 7.625 C40.19012066 7.66328821 42.00522527 7.70234571 43.8203125 7.7421875 C48.21340741 7.83697376 52.60658655 7.9214207 57 8 C57 8.33 57 8.66 57 9 C50.22313751 9.07659074 43.44638825 9.12882507 36.66918945 9.16479492 C34.36771473 9.17980349 32.06626823 9.20021673 29.76489258 9.22631836 C26.44084675 9.26305213 23.11718181 9.27980624 19.79296875 9.29296875 C18.27040718 9.31619453 18.27040718 9.31619453 16.71708679 9.33988953 C9.72201093 9.3415066 3.64887564 8.15642101 -3 6 C-2.625 3.5625 -2.625 3.5625 -2 1 C-1.34 0.67 -0.68 0.34 0 0 Z " fill="#AA8616" transform="translate(211,465)"/>
<path d="M0 0 C37.96290504 7.63049652 37.96290504 7.63049652 52 17 C48.37673261 18.2077558 47.35853631 17.54311128 44 16 C44 15.34 44 14.68 44 14 C43.030625 13.896875 42.06125 13.79375 41.0625 13.6875 C37.39389818 13.16027579 34.07512612 12.1045796 30.58203125 10.890625 C23.65454023 8.50111221 16.72234554 6.22912662 9.5 4.9375 C5.80625829 4.26372301 3.03615456 3.3277185 0 1 C0 0.67 0 0.34 0 0 Z " fill="#B89120" transform="translate(224,255)"/>
<path d="M0 0 C2 2 2 2 2.5 4.5625 C2.665 5.366875 2.83 6.17125 3 7 C3.66 7.33 4.32 7.66 5 8 C5 8.66 5 9.32 5 10 C5.99 10.66 6.98 11.32 8 12 C7.855625 12.680625 7.71125 13.36125 7.5625 14.0625 C6.93054091 17.36273082 6.45686059 20.67144426 6 24 C6.66 24 7.32 24 8 24 C8 24.66 8 25.32 8 26 C8.66 26.33 9.32 26.66 10 27 C9.67 27.66 9.34 28.32 9 29 C9.66 29.33 10.32 29.66 11 30 C10.01 30.66 9.02 31.32 8 32 C-0.60094142 10.6166318 -0.60094142 10.6166318 0 0 Z " fill="#B2942F" transform="translate(32,302)"/>
<path d="M0 0 C8.26943544 -0.84381994 15.3509127 2.21127025 23 5 C22.01 6.485 22.01 6.485 21 8 C15.40114469 8.55070708 12.69614404 8.16989723 8 5 C5.36255351 3.90147632 2.69320432 2.95859815 0 2 C0 1.34 0 0.68 0 0 Z " fill="#AA7F03" transform="translate(256,236)"/>
<path d="M0 0 C0.66 0.33 1.32 0.66 2 1 C-0.33333333 3.33333333 -2.66666667 5.66666667 -5 8 C-7.7205933 14.65033917 -7.62517877 21.91157603 -7 29 C-6.34 29.66 -5.68 30.32 -5 31 C-5 31.99 -5 32.98 -5 34 C-4.34 34 -3.68 34 -3 34 C-1.64613064 35.65002828 -0.31321858 37.3174387 1 39 C1.66 39.33 2.32 39.66 3 40 C2.67 40.66 2.34 41.32 2 42 C-3.42311878 37.78786891 -8.23101363 33.84520813 -10 27 C-10.92172128 19.49455527 -11.12758065 12.84182144 -6.4453125 6.62109375 C-4.37455886 4.2984917 -2.29845383 2.1014435 0 0 Z " fill="#8B6F1A" transform="translate(207,182)"/>
<path d="M0 0 C0.33 0 0.66 0 1 0 C0.3672852 13.79318255 -2.63978396 27.91935189 -7 41 C-7.33 41 -7.66 41 -8 41 C-9.35111663 33.19354839 -9.35111663 33.19354839 -8 30 C-7.34 29.67 -6.68 29.34 -6 29 C-5.52998967 25.72444392 -5.52998967 25.72444392 -5.375 21.9375 C-5.30023438 20.64714844 -5.22546875 19.35679687 -5.1484375 18.02734375 C-5.09945313 17.02832031 -5.05046875 16.02929688 -5 15 C-4.01 14.67 -3.02 14.34 -2 14 C-2.04125 12.80375 -2.0825 11.6075 -2.125 10.375 C-2.13851708 6.57670047 -1.42009753 3.55024382 0 0 Z " fill="#E0C152" transform="translate(473,276)"/>
<path d="M0 0 C2.64 0.33 5.28 0.66 8 1 C8 1.66 8 2.32 8 3 C8.62003906 3.01417969 9.24007812 3.02835937 9.87890625 3.04296875 C19.27941146 3.54925506 30.68274436 5.72806659 38 12 C24.80927059 11.28050567 11.93766858 6.40530273 0 1 C0 0.67 0 0.34 0 0 Z " fill="#A78922" transform="translate(161,457)"/>
<path d="M0 0 C-0.33 1.32 -0.66 2.64 -1 4 C-1.66 4 -2.32 4 -3 4 C-3.268125 4.7425 -3.53625 5.485 -3.8125 6.25 C-4.95276751 8.89061949 -6.09380306 10.85552844 -8 13 C-8.66 13 -9.32 13 -10 13 C-10.185625 13.70125 -10.37125 14.4025 -10.5625 15.125 C-12.54820026 19.09640051 -15.53933276 21.3073418 -19 24 C-19 22.35 -19 20.7 -19 19 C-17.68 19 -16.36 19 -15 19 C-15.33 18.01 -15.66 17.02 -16 16 C-14.35 15.34 -12.7 14.68 -11 14 C-11 12.68 -11 11.36 -11 10 C-10.34 9.67 -9.68 9.34 -9 9 C-8.731875 8.05125 -8.46375 7.1025 -8.1875 6.125 C-6.69189957 2.1892094 -4.38434863 0 0 0 Z " fill="#D2B243" transform="translate(436,377)"/>
<path d="M0 0 C0.66 0 1.32 0 2 0 C1.36757331 4.72502701 0.08186437 8.90570197 -1.5625 13.375 C-1.79646484 14.01566406 -2.03042969 14.65632813 -2.27148438 15.31640625 C-2.84299619 16.8793161 -3.42084229 18.43990727 -4 20 C-4.33 20 -4.66 20 -5 20 C-5.19504458 17.89651926 -5.38078496 15.79217415 -5.5625 13.6875 C-5.66691406 12.51574219 -5.77132813 11.34398437 -5.87890625 10.13671875 C-6 7 -6 7 -5 4 C-3.35 3.67 -1.7 3.34 0 3 C0 2.01 0 1.02 0 0 Z " fill="#DAAB19" transform="translate(463,317)"/>
<path d="M0 0 C0.66 0.33 1.32 0.66 2 1 C1.195625 1.763125 0.39125 2.52625 -0.4375 3.3125 C-3.16799024 5.79430898 -3.16799024 5.79430898 -4 9 C-7.06533164 10.53266582 -10.26754272 10.10276471 -13.625 10.0625 C-14.33140625 10.05798828 -15.0378125 10.05347656 -15.765625 10.04882812 C-17.51045275 10.03703875 -19.255237 10.01910324 -21 10 C-16.32018351 7.5556864 -11.42792515 5.56101159 -6.58007812 3.47851562 C-3.03814923 2.14125492 -3.03814923 2.14125492 0 0 Z " fill="#96730C" transform="translate(289,333)"/>
<path d="M0 0 C3.4857877 0.42509606 6.11517063 1.05432577 9.3125 2.5625 C13.27466753 4.10707378 15.82982825 4.16113329 19.984375 3.8125 C22 4 22 4 23.765625 5.375 C25 7 25 7 25 9 C26.65 9 28.3 9 30 9 C28.4765625 10.12890625 28.4765625 10.12890625 26 11 C23.3135859 10.45144966 20.9496048 9.81665535 18.375 8.9375 C17.31345703 8.59102417 17.31345703 8.59102417 16.23046875 8.23754883 C10.55561438 6.32719542 5.21790616 3.94761526 0 1 C0 0.67 0 0.34 0 0 Z " fill="#886916" transform="translate(210,224)"/>
<path d="M0 0 C3 1 3 1 4.28125 3.00390625 C5.54585989 5.65877638 6.78964481 8.31992778 8 11 C8.31453125 11.63164062 8.6290625 12.26328125 8.953125 12.9140625 C11.91715284 19.51047741 11.7313268 26.88479258 12 34 C11.01 34 10.02 34 9 34 C8.97421875 33.12859375 8.9484375 32.2571875 8.921875 31.359375 C8.40202215 20.44246516 6.559672 10.902412 0 2 C0 1.34 0 0.68 0 0 Z " fill="#98771A" transform="translate(298,176)"/>
<path d="M0 0 C0.33 0 0.66 0 1 0 C1.13277344 0.61488281 1.26554687 1.22976563 1.40234375 1.86328125 C1.57894531 2.67152344 1.75554688 3.47976563 1.9375 4.3125 C2.19853516 5.51326172 2.19853516 5.51326172 2.46484375 6.73828125 C2.99886159 9.145401 2.99886159 9.145401 4 12 C4 14.33333333 4 16.66666667 4 19 C4.26103516 19.93779297 4.26103516 19.93779297 4.52734375 20.89453125 C5.11032184 23.49143367 4.87477654 25.61299814 4.5625 28.25 C4.46066406 29.14203125 4.35882812 30.0340625 4.25390625 30.953125 C4.17011719 31.62859375 4.08632813 32.3040625 4 33 C3.67 33 3.34 33 3 33 C0.68258426 21.85433382 -0.41361006 11.38193609 0 0 Z " fill="#B79D40" transform="translate(26,266)"/>
<path d="M0 0 C5.61 0 11.22 0 17 0 C17 0.99 17 1.98 17 3 C17.77085937 3.18175781 18.54171875 3.36351562 19.3359375 3.55078125 C20.33882813 3.80214844 21.34171875 4.05351562 22.375 4.3125 C23.37273437 4.55613281 24.37046875 4.79976562 25.3984375 5.05078125 C28 6 28 6 30 9 C22.95213709 7.13563546 15.98573638 5.09232296 9.04296875 2.8671875 C6.03726604 2.0106201 3.08995964 1.45263983 0 1 C0 0.67 0 0.34 0 0 Z " fill="#947315" transform="translate(239,235)"/>
<path d="M0 0 C0.33 1.32 0.66 2.64 1 4 C0.01 4.33 -0.98 4.66 -2 5 C-2.1546875 6.0209375 -2.1546875 6.0209375 -2.3125 7.0625 C-3.14725019 10.62915989 -4.49472754 13.66222194 -6 17 C-6.66 17 -7.32 17 -8 17 C-7.67 18.32 -7.34 19.64 -7 21 C-8.98 21.99 -8.98 21.99 -11 23 C-11 24.98 -11 26.96 -11 29 C-11.99 29.33 -12.98 29.66 -14 30 C-13.40832525 26.30531987 -12.36678634 23.4291159 -10.625 20.125 C-9.12275673 17.22352442 -7.75141137 14.39924413 -6.5 11.375 C-4.69690473 7.31803564 -2.4334739 3.70311245 0 0 Z " fill="#D0BB66" transform="translate(55,136)"/>
<path d="M0 0 C1.49563477 0.00773438 1.49563477 0.00773438 3.02148438 0.015625 C7.84240996 0.06694557 12.45045831 0.25272807 17.1875 1.25 C17.1875 1.58 17.1875 1.91 17.1875 2.25 C16.46570557 2.24476318 15.74391113 2.23952637 15.00024414 2.23413086 C11.75017151 2.21342642 8.50011272 2.20036082 5.25 2.1875 C4.11369141 2.17912109 2.97738281 2.17074219 1.80664062 2.16210938 C0.72705078 2.15888672 -0.35253906 2.15566406 -1.46484375 2.15234375 C-2.46507568 2.14710693 -3.46530762 2.14187012 -4.49584961 2.13647461 C-6.77457228 1.98818905 -6.77457228 1.98818905 -7.8125 3.25 C-9.28646739 3.45768229 -10.7674126 3.61716017 -12.25 3.75 C-15.65747505 4.04146944 -15.65747505 4.04146944 -18.8125 5.25 C-20.81210012 5.289992 -22.81297242 5.29346799 -24.8125 5.25 C-18.81868361 -0.74381639 -7.90882198 -0.16683079 0 0 Z " fill="#8C6F1B" transform="translate(238.8125,173.75)"/>
<path d="M0 0 C5.88113399 0.3920756 10.36300104 2.3698474 15.64453125 4.94140625 C17.87363777 6.13664145 17.87363777 6.13664145 20 6 C21.625 8 21.625 8 23 10 C20 11 20 11 16.34765625 9.453125 C14.91404757 8.72899954 13.48581671 7.99415126 12.0625 7.25 C11.34642578 6.8890625 10.63035156 6.528125 9.89257812 6.15625 C6.36223554 4.35018039 3.07416786 2.53638915 0 0 Z " fill="#B69B3D" transform="translate(139,446)"/>
<path d="M0 0 C3.83471663 1.10780703 6.40670852 1.93520098 9 5 C10.051875 5.99 10.051875 5.99 11.125 7 C13 9 13 9 14 12 C14.99 12.33 15.98 12.66 17 13 C17.33 14.65 17.66 16.3 18 18 C17.34 18 16.68 18 16 18 C16 17.34 16 16.68 16 16 C15.34 16 14.68 16 14 16 C14 15.34 14 14.68 14 14 C13.34 14 12.68 14 12 14 C12 13.34 12 12.68 12 12 C11.34 12 10.68 12 10 12 C10 11.34 10 10.68 10 10 C9.34 10 8.68 10 8 10 C8 9.34 8 8.68 8 8 C7.34 8 6.68 8 6 8 C4.4921875 6.25 4.4921875 6.25 2.875 4 C2.33617188 3.2575 1.79734375 2.515 1.2421875 1.75 C0.62730469 0.88375 0.62730469 0.88375 0 0 Z " fill="#B39B47" transform="translate(79,397)"/>
<path d="M0 0 C5.55195638 3.91902803 10.20592091 8.82368363 11.875 15.5 C11.91625 16.325 11.9575 17.15 12 18 C10.1875 17.875 10.1875 17.875 8 17 C5 11.96428571 5 11.96428571 5 9 C4.34 9 3.68 9 3 9 C2.01 6.03 1.02 3.06 0 0 Z " fill="#E5BC2D" transform="translate(420,102)"/>
<path d="M0 0 C0.33 0 0.66 0 1 0 C1 1.98 1 3.96 1 6 C11.89 5.67 22.78 5.34 34 5 C34 5.33 34 5.66 34 6 C32.35 6 30.7 6 29 6 C29 6.66 29 7.32 29 8 C18.44 7.67 7.88 7.34 -3 7 C-2 3 -2 3 0 0 Z " fill="#B78D12" transform="translate(227,368)"/>
<path d="M0 0 C2.97 1.65 5.94 3.3 9 5 C9 5.66 9 6.32 9 7 C9.804375 7.28875 10.60875 7.5775 11.4375 7.875 C14 9 14 9 15 11 C11.7 11.33 8.4 11.66 5 12 C4.87625 11.0925 4.7525 10.185 4.625 9.25 C4.07890323 6.41029677 3.42736197 4.47409409 2 2 C1.34 2 0.68 2 0 2 C0 1.34 0 0.68 0 0 Z " fill="#E9BB26" transform="translate(372,60)"/>
<path d="M0 0 C0.77694214 0.37753418 0.77694214 0.37753418 1.56958008 0.76269531 C15.50397755 7.55059559 15.50397755 7.55059559 30 13 C26.09555054 14.50244746 23.37994811 13.44670334 19.5 12.1875 C18.3759375 11.83042969 17.251875 11.47335938 16.09375 11.10546875 C13.59723779 10.21340694 11.32520219 9.25948452 9 8 C9 7.34 9 6.68 9 6 C8.443125 5.87625 7.88625 5.7525 7.3125 5.625 C4.77885636 4.94023145 2.42078968 4.00866237 0 3 C0 2.01 0 1.02 0 0 Z " fill="#B18B1E" transform="translate(193,241)"/>
<path d="M0 0 C0.99 0 1.98 0 3 0 C3 0.99 3 1.98 3 3 C3.66 3 4.32 3 5 3 C5 3.99 5 4.98 5 6 C6.32 6 7.64 6 9 6 C9.33 7.65 9.66 9.3 10 11 C11.32 11 12.64 11 14 11 C15.625 12.375 15.625 12.375 17 14 C17.66 14.66 18.32 15.32 19 16 C18.34 16.33 17.68 16.66 17 17 C10.28143915 14.25579909 5.2715114 8.68824709 1 3 C0.67 2.01 0.34 1.02 0 0 Z " fill="#896D16" transform="translate(198,300)"/>
<path d="M0 0 C3 3 3 3 4 13 C11.26 13 18.52 13 26 13 C26 13.33 26 13.66 26 14 C22.20834926 14.0289337 18.41672673 14.04677601 14.625 14.0625 C13.54476563 14.07087891 12.46453125 14.07925781 11.3515625 14.08789062 C9.8046875 14.09272461 9.8046875 14.09272461 8.2265625 14.09765625 C7.27346191 14.10289307 6.32036133 14.10812988 5.33837891 14.11352539 C3 14 3 14 1 13 C0.5859375 10.05859375 0.5859375 10.05859375 0.375 6.4375 C0.30023438 5.23996094 0.22546875 4.04242188 0.1484375 2.80859375 C0.09945313 1.88175781 0.05046875 0.95492187 0 0 Z " fill="#A98718" transform="translate(281,197)"/>
<path d="M0 0 C4.73041839 2.50433915 8.48825251 4.84975296 12 9 C12 9.99 12 10.98 12 12 C12.66 12 13.32 12 14 12 C14 12.66 14 13.32 14 14 C11.625 13.75 11.625 13.75 9 13 C7.8125 11 7.8125 11 7 9 C6.34 8.67 5.68 8.34 5 8 C5 7.01 5 6.02 5 5 C3.35 4.67 1.7 4.34 0 4 C0 2.68 0 1.36 0 0 Z " fill="#EBCA54" transform="translate(387,71)"/>
<path d="M0 0 C0 0.33 0 0.66 0 1 C-8.98256292 3.97647055 -16.50621746 5.62596368 -26 5 C-25.01 4.67 -24.02 4.34 -23 4 C-23 3.34 -23 2.68 -23 2 C-22.11248047 2.03480469 -22.11248047 2.03480469 -21.20703125 2.0703125 C-16.24379038 2.23515195 -16.24379038 2.23515195 -11.5 1 C-7.72895202 -0.50841919 -4.01286586 -0.15736729 0 0 Z " fill="#BFA441" transform="translate(321,464)"/>
<path d="M0 0 C4.62 0 9.24 0 14 0 C14 0.33 14 0.66 14 1 C10.37 1.33 6.74 1.66 3 2 C3 11.24 3 20.48 3 30 C2.67 30 2.34 30 2 30 C2 20.76 2 11.52 2 2 C1.34 2 0.68 2 0 2 C0 1.34 0 0.68 0 0 Z " fill="#A97F01" transform="translate(268,343)"/>
<path d="M0 0 C0.66 0.66 1.32 1.32 2 2 C-0.98127544 7.12779375 -4.03353764 9.75269769 -9 13 C-9 8.46153846 -9 8.46153846 -8 6 C-5.625 4.4375 -5.625 4.4375 -3 3 C-1.24850835 1.41754725 -1.24850835 1.41754725 0 0 Z " fill="#C18F10" transform="translate(283,303)"/>
<path d="M0 0 C1.07636719 0.00322266 2.15273437 0.00644531 3.26171875 0.00976562 C4.38964844 0.01814453 5.51757812 0.02652344 6.6796875 0.03515625 C7.81535156 0.03966797 8.95101562 0.04417969 10.12109375 0.04882812 C12.93234388 0.0606401 15.7434898 0.07711118 18.5546875 0.09765625 C18.5546875 0.42765625 18.5546875 0.75765625 18.5546875 1.09765625 C10.9646875 1.09765625 3.3746875 1.09765625 -4.4453125 1.09765625 C-4.4453125 5.05765625 -4.4453125 9.01765625 -4.4453125 13.09765625 C-5.1053125 13.09765625 -5.7653125 13.09765625 -6.4453125 13.09765625 C-6.7753125 9.13765625 -7.1053125 5.17765625 -7.4453125 1.09765625 C-4.83580014 -0.20709993 -2.91829965 -0.01535947 0 0 Z " fill="#AB891E" transform="translate(175.4453125,282.90234375)"/>
<path d="M0 0 C2.44664205 1.22332103 2.74337967 2.11244298 3.9453125 4.52734375 C4.29980469 5.23697266 4.65429688 5.94660156 5.01953125 6.67773438 C5.38433594 7.42345703 5.74914062 8.16917969 6.125 8.9375 C6.49753906 9.67935547 6.87007813 10.42121094 7.25390625 11.18554688 C10 16.73305861 10 16.73305861 10 19 C9.34 19 8.68 19 8 19 C6.98133771 17.34467377 5.98189187 15.67739862 5 14 C4.34 13.67 3.68 13.34 3 13 C0.87641682 8.8307633 -0.44158425 4.71023203 0 0 Z " fill="#E9BE3B" transform="translate(446,139)"/>
<path d="M0 0 C3.4927366 0.67891601 6.21620072 2.08260153 9.3125 3.8125 C10.27414062 4.34746094 11.23578125 4.88242187 12.2265625 5.43359375 C15.49134487 7.27750605 18.75341775 9.12419692 22 11 C22 11.33 22 11.66 22 12 C19.36 12 16.72 12 14 12 C13.67 10.35 13.34 8.7 13 7 C11.35 7 9.7 7 8 7 C7.67 6.34 7.34 5.68 7 5 C5.35636866 4.27840576 3.68949614 3.60648579 2 3 C2 2.34 2 1.68 2 1 C1.34 0.67 0.68 0.34 0 0 Z " fill="#ECCA5F" transform="translate(350,48)"/>
<path d="M0 0 C-1.44988898 2.89977795 -3.69091619 3.34847731 -6.625 4.38916016 C-10.74140041 5.44788074 -14.77735729 5.31398469 -19 5.1875 C-19.87011719 5.17396484 -20.74023438 5.16042969 -21.63671875 5.14648438 C-23.75808627 5.11151678 -25.87912974 5.0577253 -28 5 C-28 4.67 -28 4.34 -28 4 C-26.12054688 3.81824219 -26.12054688 3.81824219 -24.203125 3.6328125 C-22.55204135 3.46395167 -20.90100191 3.29465817 -19.25 3.125 C-18.425 3.04636719 -17.6 2.96773438 -16.75 2.88671875 C-15.55117188 2.76103516 -15.55117188 2.76103516 -14.328125 2.6328125 C-13.5949707 2.55949707 -12.86181641 2.48618164 -12.10644531 2.41064453 C-7.5598098 1.52429301 -4.938726 -0.22448755 0 0 Z " fill="#BA9214" transform="translate(272,316)"/>
<path d="M0 0 C1.99801607 3.28409538 2.15166527 5.40147728 1.6875 9.1875 C1.58824219 10.06792969 1.48898438 10.94835937 1.38671875 11.85546875 C1 14 1 14 0 15 C0.020625 15.825 0.04125 16.65 0.0625 17.5 C-0.01521929 21.85228029 -0.95264702 25.79188533 -2 30 C-2.33 30 -2.66 30 -3 30 C-3.18639828 22.04700656 -3.33333324 14.68627422 -1 7 C-0.59238333 4.6707619 -0.29341173 2.34729387 0 0 Z " fill="#B1890F" transform="translate(30,202)"/>
<path d="M0 0 C-3.3877806 2.91725552 -7.07337555 4.28255824 -11.25 5.6875 C-12.22453125 6.02491211 -12.22453125 6.02491211 -13.21875 6.36914062 C-14.81030199 6.91916227 -16.40486156 7.46046788 -18 8 C-18.33 7.34 -18.66 6.68 -19 6 C-18.01 5.67 -17.02 5.34 -16 5 C-16 4.01 -16 3.02 -16 2 C-13.03 2.495 -13.03 2.495 -10 3 C-10 2.34 -10 1.68 -10 1 C-6.59437148 0.22157062 -3.49234244 -0.09978121 0 0 Z " fill="#CEB55F" transform="translate(341,456)"/>
<path d="M0 0 C2.64 0 5.28 0 8 0 C8 0.33 8 0.66 8 1 C9.35544922 1.18175781 9.35544922 1.18175781 10.73828125 1.3671875 C12.50751953 1.61855469 12.50751953 1.61855469 14.3125 1.875 C15.48425781 2.03742188 16.65601563 2.19984375 17.86328125 2.3671875 C21 3 21 3 24 5 C15.28585694 5.62867565 8.19080097 3.91691481 0 1 C0 0.67 0 0.34 0 0 Z " fill="#886917" transform="translate(216,317)"/>
<path d="M0 0 C6.45846531 0.56244893 12.35063262 1.73728465 18.5625 3.5625 C19.38041016 3.79646484 20.19832031 4.03042969 21.04101562 4.27148438 C23.02920527 4.84119954 25.01488299 5.41966914 27 6 C27 6.33 27 6.66 27 7 C24.36 7 21.72 7 19 7 C19 6.34 19 5.68 19 5 C18.29875 4.96261719 17.5975 4.92523438 16.875 4.88671875 C10.67748398 4.45727131 5.69990204 3.47354239 0 1 C0 0.67 0 0.34 0 0 Z " fill="#E8CE6A" transform="translate(294,29)"/>
<path d="M0 0 C1.125 1.6875 1.125 1.6875 2 4 C1.690625 4.763125 1.38125 5.52625 1.0625 6.3125 C-0.32756875 9.82855626 0.44432621 12.31866114 1 16 C0.34 16.66 -0.32 17.32 -1 18 C-1.99 18 -2.98 18 -4 18 C-3.71710528 15.74888027 -3.42335307 13.49912314 -3.125 11.25 C-2.96257813 9.99703125 -2.80015625 8.7440625 -2.6328125 7.453125 C-2.0941645 4.51383592 -1.51991159 2.52892853 0 0 Z " fill="#BD8A06" transform="translate(38,175)"/>
<path d="M0 0 C2.475 0.495 2.475 0.495 5 1 C5.33 2.65 5.66 4.3 6 6 C6.66 6 7.32 6 8 6 C8 6.99 8 7.98 8 9 C8.66 9 9.32 9 10 9 C10.33 10.65 10.66 12.3 11 14 C10.34 14 9.68 14 9 14 C7.7109375 12.5390625 7.7109375 12.5390625 6.375 10.625 C5.92898437 9.99851562 5.48296875 9.37203125 5.0234375 8.7265625 C4 7 4 7 4 5 C3.34 5 2.68 5 2 5 C1.34 3.35 0.68 1.7 0 0 Z " fill="#B8A149" transform="translate(63,376)"/>
<path d="M0 0 C-1.32 0.33 -2.64 0.66 -4 1 C-4 1.66 -4 2.32 -4 3 C-4.93972656 3.09087891 -4.93972656 3.09087891 -5.8984375 3.18359375 C-7.12433594 3.30927734 -7.12433594 3.30927734 -8.375 3.4375 C-9.18710938 3.51871094 -9.99921875 3.59992187 -10.8359375 3.68359375 C-13.04272805 3.89090114 -13.04272805 3.89090114 -15 5 C-17.6723621 5.13415472 -20.32250488 5.04318541 -23 5 C-20.30184358 2.30184358 -18.02989622 2.15719389 -14.3125 1.375 C-12.51232422 0.98441406 -12.51232422 0.98441406 -10.67578125 0.5859375 C-7.04773449 0.00760911 -3.66661771 -0.10355018 0 0 Z " fill="#E4C561" transform="translate(213,28)"/>
<path d="M0 0 C0.66 0.33 1.32 0.66 2 1 C-5.11389522 7.51936219 -5.11389522 7.51936219 -10 9 C-10 9.66 -10 10.32 -10 11 C-11.98 11 -13.96 11 -16 11 C-15.67 10.34 -15.34 9.68 -15 9 C-14.01 9 -13.02 9 -12 9 C-12 8.34 -12 7.68 -12 7 C-9.4453125 5.23828125 -9.4453125 5.23828125 -6.125 3.3125 C-5.03445312 2.66925781 -3.94390625 2.02601562 -2.8203125 1.36328125 C-1.88960937 0.91339844 -0.95890625 0.46351562 0 0 Z " fill="#DDC064" transform="translate(137,54)"/>
<path d="M0 0 C10.23 0 20.46 0 31 0 C29 2 29 2 26.70922852 2.21118164 C25.77522217 2.19434326 24.84121582 2.17750488 23.87890625 2.16015625 C22.35233398 2.1437207 22.35233398 2.1437207 20.79492188 2.12695312 C19.19487305 2.09504883 19.19487305 2.09504883 17.5625 2.0625 C15.45970403 2.02806974 13.35683222 1.99792861 11.25390625 1.97265625 C10.31877197 1.95468994 9.3836377 1.93672363 8.42016602 1.91821289 C5.85613471 1.89017408 5.85613471 1.89017408 3 3 C2.01 2.67 1.02 2.34 0 2 C0 1.34 0 0.68 0 0 Z " fill="#E0AA10" transform="translate(235,26)"/>
<path d="M0 0 C0.33 0.66 0.66 1.32 1 2 C0.01 2.495 0.01 2.495 -1 3 C-1.433125 4.2375 -1.433125 4.2375 -1.875 5.5 C-3 8 -3 8 -5.125 8.8125 C-5.74375 8.874375 -6.3625 8.93625 -7 9 C-7 9.66 -7 10.32 -7 11 C-8.65 11.33 -10.3 11.66 -12 12 C-12 10 -12 10 -10.390625 8.37890625 C-9.68421875 7.77949219 -8.9778125 7.18007812 -8.25 6.5625 C-7.20585938 5.66724609 -7.20585938 5.66724609 -6.140625 4.75390625 C-4.13326411 3.10918902 -2.08929688 1.53873892 0 0 Z " fill="#D4B64C" transform="translate(107,75)"/>
<path d="M0 0 C0.66 0 1.32 0 2 0 C2.7421875 1.578125 2.7421875 1.578125 3 4 C1.79703551 6.40592898 0.59121172 8.51880825 -0.875 10.75 C-1.25269531 11.35199219 -1.63039063 11.95398438 -2.01953125 12.57421875 C-2.9752977 14.07419386 -3.98344027 15.5405408 -5 17 C-5.33 17 -5.66 17 -6 17 C-6 15.35 -6 13.7 -6 12 C-5.34 12 -4.68 12 -4 12 C-4 10.68 -4 9.36 -4 8 C-3.34 8 -2.68 8 -2 8 C-2 7.34 -2 6.68 -2 6 C-1.34 6 -0.68 6 0 6 C0 4.02 0 2.04 0 0 Z " fill="#D9BA54" transform="translate(445,356)"/>
<path d="M0 0 C5.98993047 -0.3152595 9.63560356 0.31780178 15 3 C14.01 4.485 14.01 4.485 13 6 C11.88625 5.5359375 11.88625 5.5359375 10.75 5.0625 C8.15287459 3.97531409 8.15287459 3.97531409 5.9375 3.5625 C3.50778189 2.85709797 1.94007106 1.5936298 0 0 Z " fill="#E7BA33" transform="translate(315,36)"/>
<path d="M0 0 C2.64 0.33 5.28 0.66 8 1 C8 1.66 8 2.32 8 3 C11.3 3.33 14.6 3.66 18 4 C18 4.66 18 5.32 18 6 C18.66 6 19.32 6 20 6 C20 6.66 20 7.32 20 8 C13.14381674 6.07443364 6.56747868 3.7527517 0 1 C0 0.67 0 0.34 0 0 Z " fill="#CDBC7F" transform="translate(161,457)"/>
<path d="M0 0 C2.66666667 0.66666667 5.33333333 1.33333333 8 2 C8 2.66 8 3.32 8 4 C8.7425 4.28875 9.485 4.5775 10.25 4.875 C12.56739797 5.82302644 14.77917115 6.84845911 17 8 C16.67 8.66 16.34 9.32 16 10 C11.02790438 8.23570801 6.56561939 5.6060834 2 3 C2 2.34 2 1.68 2 1 C1.34 0.67 0.68 0.34 0 0 Z " fill="#B9A24C" transform="translate(123,436)"/>
<path d="M0 0 C0.33 0.99 0.66 1.98 1 3 C-0.67418627 4.6408842 -2.36227975 6.26145765 -4.0625 7.875 C-5.00222656 8.77992188 -5.94195312 9.68484375 -6.91015625 10.6171875 C-10.41415792 13.31938854 -12.74137965 14.07490644 -17 15 C-14.373409 12.08156555 -11.33023661 10.05482685 -8 8 C-7.34 8 -6.68 8 -6 8 C-5.67 7.01 -5.34 6.02 -5 5 C-3.37347684 3.29413425 -1.70993434 1.6222454 0 0 Z " fill="#C09207" transform="translate(318,323)"/>
<path d="M0 0 C0.66 0.33 1.32 0.66 2 1 C1.67 2.32 1.34 3.64 1 5 C-0.175625 5.12375 -0.175625 5.12375 -1.375 5.25 C-4.14749104 5.72806339 -4.14749104 5.72806339 -5.3125 8.0625 C-5.539375 8.701875 -5.76625 9.34125 -6 10 C-7.65 10 -9.3 10 -11 10 C-5.35475578 4.19794344 -5.35475578 4.19794344 -2 2 C-1.34 2 -0.68 2 0 2 C0 1.34 0 0.68 0 0 Z " fill="#D9BA52" transform="translate(119,65)"/>
<path d="M0 0 C7.61644202 1.24859705 13.38827536 4.07004031 20 8 C16.37673261 9.2077558 15.35853631 8.54311128 12 7 C12 6.34 12 5.68 12 5 C10.948125 4.896875 9.89625 4.79375 8.8125 4.6875 C5.12154134 4.02191729 3.00087519 3.18245468 0 1 C0 0.67 0 0.34 0 0 Z " fill="#AB8B1F" transform="translate(256,264)"/>
<path d="M0 0 C0 0.66 0 1.32 0 2 C-1.175625 2.185625 -1.175625 2.185625 -2.375 2.375 C-6.11903798 3.02052379 -9.82233497 3.79409146 -13.53515625 4.59765625 C-16.0673562 5.01099475 -18.43903799 5.06847492 -21 5 C-17.93526297 2.95684198 -15.73045705 2.25739685 -12.1875 1.375 C-11.17042969 1.11460937 -10.15335938 0.85421875 -9.10546875 0.5859375 C-5.99225142 -0.001462 -3.15977385 -0.10390886 0 0 Z " fill="#2C1B03" transform="translate(229,152)"/>
<path d="M0 0 C3 2 3 2 4 5 C4.99 5.66 5.98 6.32 7 7 C0.375 7.25 0.375 7.25 -3 5 C-2.625 3.0625 -2.625 3.0625 -2 1 C-1.34 0.67 -0.68 0.34 0 0 Z " fill="#A9840B" transform="translate(211,465)"/>
<path d="M0 0 C4.3177458 0.50797009 8.03302114 1.19682779 12 3 C11.34 3.66 10.68 4.32 10 5 C8.328451 4.69208308 6.66194453 4.35613097 5 4 C2.76832815 4.36856864 2.76832815 4.36856864 1 5 C0.67 3.35 0.34 1.7 0 0 Z " fill="#B98E03" transform="translate(200,338)"/>
<path d="M0 0 C3.76833726 3.20308667 5.81790294 7.63580589 8 12 C6.35 12 4.7 12 3 12 C2.49166409 10.75336669 1.99368855 9.50250613 1.5 8.25 C1.2215625 7.55390625 0.943125 6.8578125 0.65625 6.140625 C0 4 0 4 0 0 Z " fill="#B18B18" transform="translate(175,220)"/>
<path d="M0 0 C1.32527172 3.6297251 0.66675274 5.62288221 -0.8125 9.125 C-1.16957031 9.99382812 -1.52664062 10.86265625 -1.89453125 11.7578125 C-3 14 -3 14 -5 16 C-4.55643705 9.79011871 -3.08467498 5.39459439 0 0 Z " fill="#201001" transform="translate(179,178)"/>
<path d="M0 0 C0.33 0.66 0.66 1.32 1 2 C0.0625 4.125 0.0625 4.125 -1 6 C-1.66 6 -2.32 6 -3 6 C-3.33 7.65 -3.66 9.3 -4 11 C-5.65 11.33 -7.3 11.66 -9 12 C-9 11.34 -9 10.68 -9 10 C-8.34 10 -7.68 10 -7 10 C-6.773125 9.278125 -6.54625 8.55625 -6.3125 7.8125 C-4.75168987 4.46790687 -2.6968713 2.48396041 0 0 Z " fill="#D5B959" transform="translate(81,100)"/>
<path d="M0 0 C5.00860026 0.01351849 9.78592529 0.06878959 14.70703125 1.1328125 C14.37703125 1.7928125 14.04703125 2.4528125 13.70703125 3.1328125 C12.0409122 3.1755335 10.3732024 3.17345082 8.70703125 3.1328125 C8.37703125 2.8028125 8.04703125 2.4728125 7.70703125 2.1328125 C3.7586622 1.8695879 1.10323856 2.04283877 -2.29296875 4.1328125 C-2.62296875 3.1428125 -2.95296875 2.1528125 -3.29296875 1.1328125 C-2.29296875 0.1328125 -2.29296875 0.1328125 0 0 Z " fill="#E3AE07" transform="translate(268.29296875,26.8671875)"/>
<path d="M0 0 C1.65 0 3.3 0 5 0 C4.35550393 3.01217112 3.34977818 5.51655836 1.9375 8.25 C1.57527344 8.95640625 1.21304687 9.6628125 0.83984375 10.390625 C0.56269531 10.92171875 0.28554688 11.4528125 0 12 C-1.23578845 8.29263464 -0.62471794 5.81772071 0 2 C0 1.34 0 0.68 0 0 Z " fill="#D2B33D" transform="translate(449,345)"/>
<path d="M0 0 C2.375 0.25 2.375 0.25 5 1 C6.3125 3.0625 6.3125 3.0625 7 5 C8.65 5 10.3 5 12 5 C10.3125 6.125 10.3125 6.125 8 7 C4.5711944 6.08007655 2.21369754 4.79624953 0 2 C0 1.34 0 0.68 0 0 Z " fill="#997411" transform="translate(228,228)"/>
<path d="M0 0 C0.33 0 0.66 0 1 0 C1.69918305 2.58067563 2.38461049 5.16372847 3.0625 7.75 C3.26166016 8.47960937 3.46082031 9.20921875 3.66601562 9.9609375 C4.63744407 13.71031044 5.15449387 16.30274238 4 20 C1.8755025 16.45917084 1.53491637 13.05008109 1 9 C0.67 8.67 0.34 8.34 0 8 C-0.14115161 5.32941149 -0.04247107 2.67567762 0 0 Z " fill="#E7D071" transform="translate(466,185)"/>
<path d="M0 0 C0.33 0 0.66 0 1 0 C1.34707004 5.78450072 1.27233705 9.96563531 -2 15 C-2.99 15.495 -2.99 15.495 -4 16 C-2.68 10.72 -1.36 5.44 0 0 Z " fill="#CCB562" transform="translate(35,179)"/>
<path d="M0 0 C3 1 3 1 4.16796875 2.671875 C7.55343511 9.57251908 7.55343511 9.57251908 7 14 C6.67 13.01 6.34 12.02 6 11 C5.34 11 4.68 11 4 11 C3.52014033 9.72942818 3.0411407 8.45853152 2.5625 7.1875 C2.16224609 6.12595703 2.16224609 6.12595703 1.75390625 5.04296875 C1.13774814 3.37327604 0.56280765 1.68842296 0 0 Z " fill="#BBA554" transform="translate(44,342)"/>
<path d="M0 0 C2 2 2 2 2.1953125 3.9453125 C2.13020833 5.96354167 2.06510417 7.98177083 2 10 C0.68 9.67 -0.64 9.34 -2 9 C-2.125 5.625 -2.125 5.625 -2 2 C-1.34 1.34 -0.68 0.68 0 0 Z " fill="#AD8B1E" transform="translate(45,333)"/>
<path d="M0 0 C0.66 0 1.32 0 2 0 C1.32584613 5.2584002 -0.24265549 10.02638346 -2 15 C-2.33 15 -2.66 15 -3 15 C-2.67 11.37 -2.34 7.74 -2 4 C-1.34 4 -0.68 4 0 4 C0 2.68 0 1.36 0 0 Z " fill="#DDC159" transform="translate(463,317)"/>
<path d="M0 0 C0.99 0 1.98 0 3 0 C3.66 3.63 4.32 7.26 5 11 C4.01 11.33 3.02 11.66 2 12 C2.04125 11.319375 2.0825 10.63875 2.125 9.9375 C1.97450035 6.40075832 1.05624147 3.36676967 0 0 Z " fill="#E6BA2C" transform="translate(454,158)"/>
<path d="M0 0 C4.82675589 2.41337795 7.69984002 5.86062408 11 10 C9.35 9.67 7.7 9.34 6 9 C6 8.01 6 7.02 6 6 C4.68 5.67 3.36 5.34 2 5 C2 4.01 2 3.02 2 2 C1.34 2 0.68 2 0 2 C0 1.34 0 0.68 0 0 Z " fill="#EDD06C" transform="translate(399,81)"/>
<path d="M0 0 C2.31 0.66 4.62 1.32 7 2 C7.33 1.34 7.66 0.68 8 0 C8 1.65 8 3.3 8 5 C6.1875 5.625 6.1875 5.625 4 6 C3.01 5.34 2.02 4.68 1 4 C1 3.34 1 2.68 1 2 C0.34 1.67 -0.32 1.34 -1 1 C-0.67 0.67 -0.34 0.34 0 0 Z " fill="#A57E07" transform="translate(122,432)"/>
<path d="M0 0 C2.64 0.66 5.28 1.32 8 2 C8.33 3.32 8.66 4.64 9 6 C9.66 6 10.32 6 11 6 C10.67 6.66 10.34 7.32 10 8 C9.01 7.67 8.02 7.34 7 7 C7 6.34 7 5.68 7 5 C6.21625 4.731875 5.4325 4.46375 4.625 4.1875 C2 3 2 3 0 0 Z " fill="#BDA558" transform="translate(112,428)"/>
<path d="M0 0 C0.33 0 0.66 0 1 0 C1 1.98 1 3.96 1 6 C1.66 6 2.32 6 3 6 C3 6.66 3 7.32 3 8 C3.66 8.33 4.32 8.66 5 9 C4.67 9.66 4.34 10.32 4 11 C4.66 11.33 5.32 11.66 6 12 C5.01 12.66 4.02 13.32 3 14 C2.3012307 12.23358317 1.61633417 10.46167336 0.9375 8.6875 C0.55464844 7.70136719 0.17179687 6.71523438 -0.22265625 5.69921875 C-1 3 -1 3 0 0 Z " fill="#BCA952" transform="translate(37,320)"/>
<path d="M0 0 C0.98484375 0.11085938 1.9696875 0.22171875 2.984375 0.3359375 C3.73203125 0.43132812 4.4796875 0.52671875 5.25 0.625 C0.96465609 3.48189594 -2.71398073 2.97155647 -7.6875 2.125 C-8.368125 1.96 -9.04875 1.795 -9.75 1.625 C-6.30824478 -0.52199969 -3.9779708 -0.47356795 0 0 Z " fill="#BBA140" transform="translate(223.75,471.375)"/>
<path d="M0 0 C0.99 0 1.98 0 3 0 C3.66 2.31 4.32 4.62 5 7 C5.66 7 6.32 7 7 7 C7 8.32 7 9.64 7 11 C6.34 11 5.68 11 5 11 C4.16151196 9.54462432 3.32936066 8.08559627 2.5 6.625 C1.80390625 5.40683594 1.80390625 5.40683594 1.09375 4.1640625 C0 2 0 2 0 0 Z " fill="#BCA75B" transform="translate(56,364)"/>
<path d="M0 0 C0.66 0.99 1.32 1.98 2 3 C0.02 3.99 0.02 3.99 -2 5 C-2 6.98 -2 8.96 -2 11 C-2.99 11.33 -3.98 11.66 -5 12 C-4.37343743 7.73937456 -3.1323664 3.1323664 0 0 Z " fill="#CCB258" transform="translate(46,154)"/>
<path d="M0 0 C-1.485 2.475 -1.485 2.475 -3 5 C-6.37992169 4.46228519 -9.68737889 3.85696068 -13 3 C-4.57142857 -0.42857143 -4.57142857 -0.42857143 0 0 Z " fill="#E1BF51" transform="translate(190,33)"/>
<path d="M0 0 C-11.52164009 3.44419134 -11.52164009 3.44419134 -17 3 C-17.33 2.34 -17.66 1.68 -18 1 C-15.75152519 0.63627613 -13.50113812 0.28435904 -11.25 -0.0625 C-9.99703125 -0.25972656 -8.7440625 -0.45695312 -7.453125 -0.66015625 C-4.49983411 -0.95080818 -2.7397586 -0.98935727 0 0 Z " fill="#DCA710" transform="translate(227,28)"/>
<path d="M0 0 C7.75 1.625 7.75 1.625 10 5 C9.67 5.66 9.34 6.32 9 7 C8.34 7 7.68 7 7 7 C7 6.34 7 5.68 7 5 C6.21625 4.731875 5.4325 4.46375 4.625 4.1875 C2 3 2 3 0 0 Z " fill="#BAA550" transform="translate(103,421)"/>
<path d="M0 0 C0.84648337 3.13198848 1.29734145 4.94198087 0 8 C-2.4375 10.75 -2.4375 10.75 -5 13 C-5.66 13 -6.32 13 -7 13 C-5.54331217 10.03216871 -3.98767914 7.13584687 -2.375 4.25 C-1.92898438 3.45078125 -1.48296875 2.6515625 -1.0234375 1.828125 C-0.68570312 1.22484375 -0.34796875 0.6215625 0 0 Z " fill="#846916" transform="translate(307,312)"/>
<path d="M0 0 C5.78898419 -0.20674944 10.42932723 0.40837921 16 2 C15.67 2.66 15.34 3.32 15 4 C10.05 3.01 5.1 2.02 0 1 C0 0.67 0 0.34 0 0 Z " fill="#8C6D19" transform="translate(239,235)"/>
<path d="M0 0 C2.64 0 5.28 0 8 0 C8.12375 0.639375 8.2475 1.27875 8.375 1.9375 C8.58125 2.618125 8.7875 3.29875 9 4 C9.66 4.33 10.32 4.66 11 5 C11 5.66 11 6.32 11 7 C7.22272911 5.18690997 3.62730178 3.0926741 0 1 C0 0.67 0 0.34 0 0 Z " fill="#987718" transform="translate(279,160)"/>
<path d="M0 0 C0.8125 1.625 0.8125 1.625 1 4 C-3 9.66666667 -3 9.66666667 -7 11 C-7 10.34 -7 9.68 -7 9 C-6.34 9 -5.68 9 -5 9 C-4.7834375 8.071875 -4.7834375 8.071875 -4.5625 7.125 C-4 5 -4 5 -3 3 C-2.34 3 -1.68 3 -1 3 C-0.67 2.01 -0.34 1.02 0 0 Z " fill="#D4BB69" transform="translate(68,116)"/>
<path d="M0 0 C3 1 3 1 5 4 C4.67 4.99 4.34 5.98 4 7 C2.35 6.67 0.7 6.34 -1 6 C-0.67 4.02 -0.34 2.04 0 0 Z " fill="#EBB30C" transform="translate(417,101)"/>
<path d="M0 0 C0.33 0.99 0.66 1.98 1 3 C1.99 3 2.98 3 4 3 C4.66 5.64 5.32 8.28 6 11 C5.34 11 4.68 11 4 11 C3.896875 10.360625 3.79375 9.72125 3.6875 9.0625 C3.460625 8.381875 3.23375 7.70125 3 7 C2.01 6.67 1.02 6.34 0 6 C-0.75 4.0625 -0.75 4.0625 -1 2 C-0.67 1.34 -0.34 0.68 0 0 Z " fill="#E5C03A" transform="translate(460,174)"/>
<path d="M0 0 C0.66 0 1.32 0 2 0 C1.875 3.3125 1.875 3.3125 1 7 C-2.0625 8.9375 -2.0625 8.9375 -5 10 C-3.33333333 6.66666667 -1.66666667 3.33333333 0 0 Z " fill="#C39506" transform="translate(70,115)"/>
<path d="M0 0 C0.66 0.33 1.32 0.66 2 1 C0.875 3.875 0.875 3.875 -1 7 C-4.1875 8.375 -4.1875 8.375 -7 9 C-5.625 6.5 -5.625 6.5 -4 4 C-3.34 4 -2.68 4 -2 4 C-2 3.34 -2 2.68 -2 2 C-1.34 2 -0.68 2 0 2 C0 1.34 0 0.68 0 0 Z " fill="#D2B64D" transform="translate(89,91)"/>
<path d="M0 0 C3 1 3 1 4 3 C5.64363134 3.72159424 7.31050386 4.39351421 9 5 C6.83032311 5.95465783 5.43671207 6.14401212 3.17578125 5.3984375 C1.4315257 4.64129615 -0.28627131 3.82390802 -2 3 C-2 2.34 -2 1.68 -2 1 C-1.34 0.67 -0.68 0.34 0 0 Z " fill="#E7B313" transform="translate(349,48)"/>
<path d="M0 0 C5.53846154 0.49230769 5.53846154 0.49230769 7.875 3.0625 C8.431875 4.0215625 8.431875 4.0215625 9 5 C6.03 4.67 3.06 4.34 0 4 C0 2.68 0 1.36 0 0 Z " fill="#A87F06" transform="translate(169,456)"/>
<path d="M0 0 C0.66 0 1.32 0 2 0 C2.33 1.32 2.66 2.64 3 4 C1.68 4 0.36 4 -1 4 C-1 4.66 -1 5.32 -1 6 C-3.64 6 -6.28 6 -9 6 C-9 5.67 -9 5.34 -9 5 C-8.071875 4.9175 -7.14375 4.835 -6.1875 4.75 C-2.51160074 3.88508253 -1.97379547 3.05938298 0 0 Z " fill="#B78E11" transform="translate(323,458)"/>
<path d="M0 0 C-1.26538369 0.84158536 -2.53753779 1.67299748 -3.8125 2.5 C-4.87404297 3.19609375 -4.87404297 3.19609375 -5.95703125 3.90625 C-8 5 -8 5 -11 5 C-10 2 -10 2 -6.625 0.25 C-3 -1 -3 -1 0 0 Z " fill="#C9AF49" transform="translate(364,445)"/>
<path d="M0 0 C0.66 0.33 1.32 0.66 2 1 C1.67 2.65 1.34 4.3 1 6 C-0.65 6 -2.3 6 -4 6 C-4.33 5.01 -4.66 4.02 -5 3 C-4.34 2.34 -3.68 1.68 -3 1 C-2.01 1.33 -1.02 1.66 0 2 C0 1.34 0 0.68 0 0 Z " fill="#A87D06" transform="translate(109,416)"/>
<path d="M0 0 C0 0.99 0 1.98 0 3 C-3.03525486 5.02350324 -4.19426202 5.32124018 -7.6875 5.625 C-8.49574219 5.69976562 -9.30398438 5.77453125 -10.13671875 5.8515625 C-11.05904297 5.92503906 -11.05904297 5.92503906 -12 6 C-8.37464179 2.82781157 -4.48849722 1.57097403 0 0 Z " fill="#7C6319" transform="translate(284,336)"/>
<path d="M0 0 C-1 2 -1 2 -3.28515625 2.8515625 C-4.20167969 3.10679687 -5.11820312 3.36203125 -6.0625 3.625 C-7.44115234 4.01558594 -7.44115234 4.01558594 -8.84765625 4.4140625 C-9.55792969 4.60742188 -10.26820313 4.80078125 -11 5 C-10 2 -10 2 -8.3125 0.8125 C-5.45030907 -0.19313465 -3.01172092 -0.13689641 0 0 Z " fill="#AA871B" transform="translate(272,316)"/>
<path d="M0 0 C4.05952843 0.45105871 6.40226443 0.75283053 9 4 C9.66 4.66 10.32 5.32 11 6 C10.01 6.495 10.01 6.495 9 7 C7.08984375 6.07421875 7.08984375 6.07421875 4.9375 4.6875 C4.22464844 4.23761719 3.51179687 3.78773438 2.77734375 3.32421875 C1 2 1 2 0 0 Z " fill="#806514" transform="translate(206,310)"/>
<path d="M0 0 C1.98 0 3.96 0 6 0 C5.01 0.495 5.01 0.495 4 1 C4 1.66 4 2.32 4 3 C2 4.625 2 4.625 0 6 C-0.66 5.67 -1.32 5.34 -2 5 C-1.34 3.35 -0.68 1.7 0 0 Z " fill="#CFB251" transform="translate(386,425)"/>
<path d="M0 0 C2.64 0 5.28 0 8 0 C8 0.33 8 0.66 8 1 C10.97 1.495 10.97 1.495 14 2 C11.49923002 3.62433191 10.41017471 4.07333427 7.421875 3.5390625 C6.54015625 3.23742187 5.6584375 2.93578125 4.75 2.625 C3.85796875 2.32851563 2.9659375 2.03203125 2.046875 1.7265625 C1.37140625 1.48679687 0.6959375 1.24703125 0 1 C0 0.67 0 0.34 0 0 Z " fill="#7C6214" transform="translate(216,317)"/>
<path d="M0 0 C0.66 0.33 1.32 0.66 2 1 C1.67 2.65 1.34 4.3 1 6 C-1.97 5.01 -4.94 4.02 -8 3 C-8 2.67 -8 2.34 -8 2 C-6.865625 1.855625 -5.73125 1.71125 -4.5625 1.5625 C-1.19222799 1.38828522 -1.19222799 1.38828522 0 0 Z " fill="#957313" transform="translate(278,242)"/>
<path d="M0 0 C0 3 0 6 0 9 C-1.65 9.66 -3.3 10.32 -5 11 C-5 10.01 -5 9.02 -5 8 C-4.34 7.67 -3.68 7.34 -3 7 C-2.835 6.01 -2.67 5.02 -2.5 4 C-2.335 3.01 -2.17 2.02 -2 1 C-1.34 0.67 -0.68 0.34 0 0 Z " fill="#BB900B" transform="translate(46,158)"/>
<path d="M0 0 C0 0.33 0 0.66 0 1 C-1.41750563 0.88490339 -2.83401169 0.75746342 -4.25 0.625 C-5.03890625 0.55539062 -5.8278125 0.48578125 -6.640625 0.4140625 C-9.085877 -0.01507113 -10.84836903 -0.78600638 -13 -2 C-7.52667068 -3.46845421 -4.88077452 -2.44038726 0 0 Z " fill="#C0A85A" transform="translate(199,468)"/>
<path d="M0 0 C2.475 0.495 2.475 0.495 5 1 C5.33 2.65 5.66 4.3 6 6 C5.01 6 4.02 6 3 6 C0 2.66666667 0 2.66666667 0 0 Z " fill="#B9A04C" transform="translate(74,390)"/>
<path d="M0 0 C0.66 0.66 1.32 1.32 2 2 C-2 8.57142857 -2 8.57142857 -6 10 C-6 9.01 -6 8.02 -6 7 C-5.01 7 -4.02 7 -3 7 C-2.87625 6.030625 -2.7525 5.06125 -2.625 4.0625 C-2.41875 3.051875 -2.2125 2.04125 -2 1 C-1.34 0.67 -0.68 0.34 0 0 Z " fill="#AD891E" transform="translate(283,303)"/>
<path d="M0 0 C3.53586014 3.17320782 5.58578031 5.16743695 6 10 C5.34 10 4.68 10 4 10 C3.32845067 8.71086513 2.66291141 7.41859796 2 6.125 C1.62875 5.40570313 1.2575 4.68640625 0.875 3.9453125 C0 2 0 2 0 0 Z " fill="#B98F20" transform="translate(275,187)"/>
<path d="M0 0 C6.75 2.625 6.75 2.625 9 6 C8.01 6.495 8.01 6.495 7 7 C7 6.34 7 5.68 7 5 C5.824375 4.7834375 5.824375 4.7834375 4.625 4.5625 C2 4 2 4 0 3 C0 2.01 0 1.02 0 0 Z " fill="#BA901E" transform="translate(264,179)"/>
<path d="M0 0 C1.125 1.6875 1.125 1.6875 2 4 C1.1144582 7.0993963 0.28724116 8.71275884 -2 11 C-2.28571429 3.57142857 -2.28571429 3.57142857 0 0 Z " fill="#B68E0D" transform="translate(38,175)"/>
<path d="M0 0 C2.67710191 1.33855096 2.95129094 2.72058088 4.125 5.4375 C4.47820312 6.24058594 4.83140625 7.04367188 5.1953125 7.87109375 C6 10 6 10 6 12 C5.34 12 4.68 12 4 12 C1.09891706 8.17057052 0.46319911 4.72463088 0 0 Z " fill="#ECD47A" transform="translate(450,146)"/>
<path d="M0 0 C3.24299151 2.38957269 5.50902342 4.2047869 7 8 C5.68 8.33 4.36 8.66 3 9 C2.01 6.03 1.02 3.06 0 0 Z " fill="#EDD15A" transform="translate(420,102)"/>
<path d="M0 0 C0.99 0.33 1.98 0.66 3 1 C3 1.99 3 2.98 3 4 C3.66 4 4.32 4 5 4 C5 4.66 5 5.32 5 6 C3.35 5.67 1.7 5.34 0 5 C-0.5625 3.0625 -0.5625 3.0625 -1 1 C-0.67 0.67 -0.34 0.34 0 0 Z " fill="#E7B823" transform="translate(396,79)"/>
<path d="M0 0 C2.97 0.495 2.97 0.495 6 1 C5.01 1.495 5.01 1.495 4 2 C4 2.66 4 3.32 4 4 C1.69 4.66 -0.62 5.32 -3 6 C-3 5.34 -3 4.68 -3 4 C-2.01 3.67 -1.02 3.34 0 3 C0 2.01 0 1.02 0 0 Z " fill="#C7A644" transform="translate(325,458)"/>
<path d="M0 0 C3.46941546 0.45822468 6.67395049 0.89131683 10 2 C9.67 2.99 9.34 3.98 9 5 C2.25 2.25 2.25 2.25 0 0 Z " fill="#BD9E4D" transform="translate(139,446)"/>
<path d="M0 0 C1.98 0 3.96 0 6 0 C2.87567603 2.52349243 -0.38060496 4.27256146 -4 6 C-4 5.01 -4 4.02 -4 3 C-3.01 3 -2.02 3 -1 3 C-0.67 2.01 -0.34 1.02 0 0 Z " fill="#CDB452" transform="translate(369,438)"/>
<path d="M0 0 C0.598125 0.20625 1.19625 0.4125 1.8125 0.625 C0.53187515 2.3324998 -0.80517557 3.99873596 -2.1875 5.625 C-2.8475 5.625 -3.5075 5.625 -4.1875 5.625 C-4.5175 4.305 -4.8475 2.985 -5.1875 1.625 C-2.1875 -0.375 -2.1875 -0.375 0 0 Z " fill="#BE9611" transform="translate(184.1875,169.375)"/>
<path d="M0 0 C0.66 0 1.32 0 2 0 C2.33 1.98 2.66 3.96 3 6 C1.35 6.66 -0.3 7.32 -2 8 C-1.47731534 5.23723823 -0.89130413 2.6739124 0 0 Z " fill="#BD9208" transform="translate(53,141)"/>
<path d="M0 0 C1.875 0.125 1.875 0.125 4 1 C5.25 4.0625 5.25 4.0625 6 7 C5.01 7 4.02 7 3 7 C0 2.77777778 0 2.77777778 0 0 Z " fill="#E7BF46" transform="translate(440,132)"/>
<path d="M0 0 C2.31 0.33 4.62 0.66 7 1 C7 1.99 7 2.98 7 4 C4.69 3.67 2.38 3.34 0 3 C0 2.01 0 1.02 0 0 Z " fill="#D5A604" transform="translate(248,120)"/>
<path d="M0 0 C3.3 0.33 6.6 0.66 10 1 C10 1.99 10 2.98 10 4 C6.44219804 3.39009109 3.3171411 2.4216319 0 1 C0 0.67 0 0.34 0 0 Z " fill="#E7C140" transform="translate(339,45)"/>
<path d="M0 0 C2.475 0.99 2.475 0.99 5 2 C4.67 3.32 4.34 4.64 4 6 C2.68 5.34 1.36 4.68 0 4 C0 2.68 0 1.36 0 0 Z " fill="#A38009" transform="translate(139,441)"/>
<path d="M0 0 C5.75 1.75 5.75 1.75 8 4 C7.67 4.66 7.34 5.32 7 6 C3.63279613 4.60667426 2.0140476 3.0210714 0 0 Z " fill="#B3953A" transform="translate(79,397)"/>
<path d="M0 0 C0.66 0.33 1.32 0.66 2 1 C2.625 4.0625 2.625 4.0625 3 7 C1.02 6.34 -0.96 5.68 -3 5 C-3 4.01 -3 3.02 -3 2 C-2.01 2 -1.02 2 0 2 C0 1.34 0 0.68 0 0 Z " fill="#A17D0B" transform="translate(82,392)"/>
<path d="M0 0 C-0.33 1.32 -0.66 2.64 -1 4 C-1.66 4 -2.32 4 -3 4 C-3.66 5.65 -4.32 7.3 -5 9 C-5.33 7.68 -5.66 6.36 -6 5 C-5.34 5 -4.68 5 -4 5 C-4 3.68 -4 2.36 -4 1 C-2 0 -2 0 0 0 Z " fill="#D2B656" transform="translate(429,386)"/>
<path d="M0 0 C0.33 0 0.66 0 1 0 C1 1.98 1 3.96 1 6 C1.66 6.33 2.32 6.66 3 7 C1.02 7 -0.96 7 -3 7 C-2.38722388 4.03824877 -1.74627478 2.61941217 0 0 Z " fill="#B68E03" transform="translate(227,368)"/>
<path d="M0 0 C0.99 0 1.98 0 3 0 C3.53229326 1.26607607 4.05044544 2.53810412 4.5625 3.8125 C4.85253906 4.52019531 5.14257812 5.22789062 5.44140625 5.95703125 C6 8 6 8 5 11 C3.35 7.37 1.7 3.74 0 0 Z " fill="#8F751C" transform="translate(304,267)"/>
<path d="M0 0 C1.65549531 0.38499891 3.3222433 0.72793135 5 1 C5 1.66 5 2.32 5 3 C0.71 2.01 -3.58 1.02 -8 0 C-8 -0.33 -8 -0.66 -8 -1 C-3.375 -2.25 -3.375 -2.25 0 0 Z " fill="#342205" transform="translate(250,260)"/>
<path d="M0 0 C2.64 0 5.28 0 8 0 C5.64722731 2.72426311 3.37503669 3.8141763 0 5 C0 3.35 0 1.7 0 0 Z " fill="#B7921B" transform="translate(190,160)"/>
<path d="M0 0 C1.65 0 3.3 0 5 0 C4.1875 2.4375 4.1875 2.4375 3 5 C2.01 5.33 1.02 5.66 0 6 C0 4 0 2 0 0 Z " fill="#A9830B" transform="translate(41,329)"/>
<path d="M0 0 C4.3177458 0.50797009 8.03302114 1.19682779 12 3 C12 3.66 12 4.32 12 5 C10.56068883 4.54738642 9.12361001 4.08767021 7.6875 3.625 C6.88699219 3.36976563 6.08648437 3.11453125 5.26171875 2.8515625 C3 2 3 2 0 0 Z " fill="#8B721A" transform="translate(267,155)"/>
<path d="M0 0 C1.98 0 3.96 0 6 0 C6 0.66 6 1.32 6 2 C6.66 2 7.32 2 8 2 C8 2.66 8 3.32 8 4 C5.36 3.34 2.72 2.68 0 2 C0 1.34 0 0.68 0 0 Z " fill="#BEA75A" transform="translate(173,461)"/>
<path d="M0 0 C0.99 0 1.98 0 3 0 C2.40138258 2.35171131 1.73075648 4.6859378 1 7 C0.01 7.495 0.01 7.495 -1 8 C-0.67 5.36 -0.34 2.72 0 0 Z " fill="#DAC25D" transform="translate(455,337)"/>
<path d="M0 0 C4.46839215 -0.21278058 7.82262526 0.40861915 12 2 C12 2.33 12 2.66 12 3 C9.36 3 6.72 3 4 3 C4 2.34 4 1.68 4 1 C2.68 0.67 1.36 0.34 0 0 Z " fill="#BE961E" transform="translate(252,176)"/>
<path d="M0 0 C4.875 4.75 4.875 4.75 6 7 C4.68 7 3.36 7 2 7 C1.34 4.69 0.68 2.38 0 0 Z " fill="#EACD69" transform="translate(431,116)"/>
<path d="M0 0 C2.97 1.65 5.94 3.3 9 5 C8.67 5.66 8.34 6.32 8 7 C6.02 6.01 4.04 5.02 2 4 C2 3.34 2 2.68 2 2 C1.34 2 0.68 2 0 2 C0 1.34 0 0.68 0 0 Z " fill="#EED782" transform="translate(372,60)"/>
<path d="M0 0 C3.66881155 0.70554068 6.70450534 2.27735506 10 4 C6.37673261 5.2077558 5.35853631 4.54311128 2 3 C2 2.34 2 1.68 2 1 C1.34 0.67 0.68 0.34 0 0 Z " fill="#EED887" transform="translate(350,48)"/>
<path d="M0 0 C0.99 0.33 1.98 0.66 3 1 C2.67 1.66 2.34 2.32 2 3 C1.34 3 0.68 3 0 3 C0 3.66 0 4.32 0 5 C-0.99 5.33 -1.98 5.66 -3 6 C-3 4.68 -3 3.36 -3 2 C-2.01 2 -1.02 2 0 2 C0 1.34 0 0.68 0 0 Z " fill="#D3B75B" transform="translate(381,430)"/>
<path d="M0 0 C0.33 0.99 0.66 1.98 1 3 C1.66 3 2.32 3 3 3 C3.33 4.65 3.66 6.3 4 8 C3.34 8 2.68 8 2 8 C0.3125 6.25 0.3125 6.25 -1 4 C-0.6875 1.75 -0.6875 1.75 0 0 Z " fill="#BEA75C" transform="translate(70,382)"/>
<path d="M0 0 C0.28875 0.61875 0.5775 1.2375 0.875 1.875 C1.93720042 4.13325765 1.93720042 4.13325765 4 6 C3.67 6.66 3.34 7.32 3 8 C2.34 8 1.68 8 1 8 C0.87625 7.360625 0.7525 6.72125 0.625 6.0625 C0.315625 5.0415625 0.315625 5.0415625 0 4 C-0.66 3.67 -1.32 3.34 -2 3 C-1.34 2.01 -0.68 1.02 0 0 Z " fill="#A67E06" transform="translate(60,363)"/>
<path d="M0 0 C0 0.66 0 1.32 0 2 C-2.97 1.67 -5.94 1.34 -9 1 C-9 0.67 -9 0.34 -9 0 C-5.62182575 -0.84454356 -3.32534757 -1.10844919 0 0 Z " fill="#2A1703" transform="translate(229,342)"/>
<path d="M0 0 C0.33 0 0.66 0 1 0 C1.66 3.63 2.32 7.26 3 11 C2.01 10.67 1.02 10.34 0 10 C0 6.7 0 3.4 0 0 Z " fill="#A48614" transform="translate(30,290)"/>
<path d="M0 0 C3.465 1.98 3.465 1.98 7 4 C6.01 5.485 6.01 5.485 5 7 C4.54625 6.525625 4.0925 6.05125 3.625 5.5625 C2.06741796 3.90972192 2.06741796 3.90972192 0 3 C0 2.01 0 1.02 0 0 Z " fill="#1B0C00" transform="translate(280,161)"/>
<path d="M0 0 C0.33 0.66 0.66 1.32 1 2 C0.06421005 4.35981813 -0.93347808 6.69631264 -2 9 C-2.66 9 -3.32 9 -4 9 C-2.94124926 5.59687262 -1.99097846 2.98646769 0 0 Z " fill="#D7BE6F" transform="translate(60,127)"/>
</svg>
